<svg width="76" height="76" viewBox="0 0 76 76" fill="none" xmlns="http://www.w3.org/2000/svg">
<rect width="76" height="76" rx="38" fill="url(#paint0_linear_245_6006)" fill-opacity="0.2"/>
<path d="M22 38.2409V45.7677C22 49.2151 24.96 52 28.624 52H47.36C51.024 52 54 49.2 54 45.7527V38.2409C54 37.2323 53.136 36.4194 52.064 36.4194H23.936C22.864 36.4194 22 37.2323 22 38.2409ZM31.6 46.957H28.4C27.744 46.957 27.2 46.4452 27.2 45.828C27.2 45.2108 27.744 44.6989 28.4 44.6989H31.6C32.256 44.6989 32.8 45.2108 32.8 45.828C32.8 46.4452 32.256 46.957 31.6 46.957ZM42 46.957H35.6C34.944 46.957 34.4 46.4452 34.4 45.828C34.4 45.2108 34.944 44.6989 35.6 44.6989H42C42.656 44.6989 43.2 45.2108 43.2 45.828C43.2 46.4452 42.656 46.957 42 46.957Z" fill="url(#paint1_linear_245_6006)"/>
<path d="M40.4 27.9267V32.3374C40.4 33.346 39.536 34.1589 38.464 34.1589H23.936C22.848 34.1589 22 33.3159 22 32.3073C22.016 30.6063 22.736 29.0557 23.936 27.9267C25.136 26.7977 26.8 26.1052 28.624 26.1052H38.464C39.536 26.1052 40.4 26.9181 40.4 27.9267Z" fill="url(#paint2_linear_245_6006)"/>
<path d="M50.752 24H46.048C44.016 24 42.8 25.1441 42.8 27.0559V31.4817C42.8 33.3935 44.016 34.5376 46.048 34.5376H50.752C52.784 34.5376 54 33.3935 54 31.4817V27.0559C54 25.1441 52.784 24 50.752 24ZM52.256 29.9161C52.096 30.0667 51.856 30.172 51.6 30.1871H49.344L49.36 32.2796C49.344 32.5355 49.248 32.7462 49.056 32.9269C48.896 33.0774 48.656 33.1828 48.4 33.1828C47.872 33.1828 47.44 32.7763 47.44 32.2796V30.172L45.2 30.1871C44.672 30.1871 44.24 29.7656 44.24 29.2688C44.24 28.772 44.672 28.3656 45.2 28.3656L47.44 28.3806V26.2731C47.44 25.7763 47.872 25.3548 48.4 25.3548C48.928 25.3548 49.36 25.7763 49.36 26.2731L49.344 28.3656H51.6C52.128 28.3656 52.56 28.772 52.56 29.2688C52.544 29.5247 52.432 29.7355 52.256 29.9161Z" fill="url(#paint3_linear_245_6006)"/>
<defs>
<linearGradient id="paint0_linear_245_6006" x1="-12.1165" y1="44.7556" x2="88.6634" y2="21.6943" gradientUnits="userSpaceOnUse">
<stop stop-color="#F6DEC6"/>
<stop offset="0.47" stop-color="#E872D4"/>
<stop offset="0.656667" stop-color="#C190D9"/>
<stop offset="0.881578" stop-color="#A2DCFE"/>
</linearGradient>
<linearGradient id="paint1_linear_245_6006" x1="16.8983" y1="40.4889" x2="58.6953" y2="29.5583" gradientUnits="userSpaceOnUse">
<stop stop-color="#F6DEC6"/>
<stop offset="0.47" stop-color="#E872D4"/>
<stop offset="0.656667" stop-color="#C190D9"/>
<stop offset="0.881578" stop-color="#A2DCFE"/>
</linearGradient>
<linearGradient id="paint2_linear_245_6006" x1="16.8983" y1="40.4889" x2="58.6953" y2="29.5583" gradientUnits="userSpaceOnUse">
<stop stop-color="#F6DEC6"/>
<stop offset="0.47" stop-color="#E872D4"/>
<stop offset="0.656667" stop-color="#C190D9"/>
<stop offset="0.881578" stop-color="#A2DCFE"/>
</linearGradient>
<linearGradient id="paint3_linear_245_6006" x1="16.8983" y1="40.4889" x2="58.6953" y2="29.5583" gradientUnits="userSpaceOnUse">
<stop stop-color="#F6DEC6"/>
<stop offset="0.47" stop-color="#E872D4"/>
<stop offset="0.656667" stop-color="#C190D9"/>
<stop offset="0.881578" stop-color="#A2DCFE"/>
</linearGradient>
</defs>
</svg>
