<svg width="60" height="61" viewBox="0 0 60 61" fill="none" xmlns="http://www.w3.org/2000/svg">
<rect y="0.5" width="60" height="60" rx="29.9" fill="url(#paint0_linear_245_7054)" fill-opacity="0.26"/>
<path d="M29.9599 19.6436C24.0152 19.6436 19.196 24.4628 19.196 30.4074C19.196 36.3517 24.0152 41.1716 29.9598 41.1716C35.9044 41.1716 40.724 36.3519 40.724 30.4074C40.7238 24.4628 35.9045 19.6436 29.9599 19.6436ZM36.1069 31.758C35.6221 34.8386 32.9538 37.0439 29.9283 37.0439C29.6063 37.0439 29.2804 37.0188 28.9525 36.9674C25.5441 36.4303 23.2072 33.2205 23.7432 29.8126C24.0031 28.1613 24.8903 26.71 26.2415 25.7262C27.4047 24.8794 28.7917 24.4673 30.2088 24.5345L29.1663 23.5418L29.8496 22.8248L31.4491 24.3489L31.4495 24.3487L32.1649 25.0313L31.4823 25.7483L31.4819 25.7477L29.9579 27.3476L29.2418 26.6644L30.2074 25.6517C29.0264 25.5847 27.8676 25.9236 26.8987 26.629C25.7885 27.4373 25.0597 28.6296 24.8462 29.9862C24.406 32.7861 26.326 35.4232 29.1262 35.8643C31.9262 36.3042 34.563 34.3848 35.0036 31.5845C35.2945 29.736 34.5569 27.8731 33.078 26.7228L33.764 25.8415C35.5631 27.2412 36.4609 29.5082 36.1069 31.758ZM27.8857 32.2331L27.8491 32.1473L28.7692 31.7572L28.8055 31.8432C28.9519 32.1905 29.4577 32.4524 29.982 32.4524C30.2176 32.4524 30.9862 32.4094 30.9862 31.854C30.9862 31.5631 30.6576 31.3889 29.9518 31.3057C29.1599 31.2169 28.0745 31.0955 28.0745 29.9001C28.0745 29.1672 28.6228 28.6548 29.5461 28.5184V27.955H30.5379V28.5208C30.9665 28.5962 31.5321 28.7829 31.8476 29.4282L31.8895 29.5135L31.0424 29.9054L30.9996 29.8341C30.8513 29.5892 30.415 29.3969 30.0069 29.3969C29.7316 29.3969 29.0916 29.4461 29.0916 29.9C29.0916 30.2263 29.504 30.3015 30.0434 30.366C30.8867 30.4699 32.0412 30.6121 32.0412 31.8538C32.0412 32.7677 31.3001 33.2487 30.5381 33.334V33.9764H29.5465V33.3648C28.7464 33.2708 28.1582 32.8708 27.8857 32.2331Z" fill="url(#paint1_linear_245_7054)"/>
<defs>
<linearGradient id="paint0_linear_245_7054" x1="-9.56562" y1="35.8333" x2="69.9974" y2="17.6271" gradientUnits="userSpaceOnUse">
<stop stop-color="#F6DEC6"/>
<stop offset="0.47" stop-color="#E872D4"/>
<stop offset="0.656667" stop-color="#C190D9"/>
<stop offset="0.881578" stop-color="#A2DCFE"/>
</linearGradient>
<linearGradient id="paint1_linear_245_7054" x1="15.7639" y1="32.3212" x2="44.3111" y2="25.7888" gradientUnits="userSpaceOnUse">
<stop stop-color="#F6DEC6"/>
<stop offset="0.47" stop-color="#E872D4"/>
<stop offset="0.656667" stop-color="#C190D9"/>
<stop offset="0.881578" stop-color="#A2DCFE"/>
</linearGradient>
</defs>
</svg>
