<svg width="60" height="61" viewBox="0 0 60 61" fill="none" xmlns="http://www.w3.org/2000/svg">
<rect y="0.5" width="60" height="60" rx="29.9" fill="url(#paint0_linear_245_7347)" fill-opacity="0.26"/>
<path d="M25.235 18.4473C23.6692 18.4488 22.168 18.9744 21.0608 19.9086C19.9536 20.8428 19.3307 22.1094 19.3289 23.4305V41.3704C19.329 41.5516 19.3878 41.7294 19.4988 41.8846C19.6098 42.0398 19.7689 42.1665 19.959 42.2511C20.149 42.3357 20.3628 42.3749 20.5773 42.3646C20.7918 42.3543 20.9989 42.2948 21.1763 42.1926L23.664 40.7584L26.1517 42.1926C26.3482 42.3062 26.5809 42.3669 26.8191 42.3669C27.0573 42.3669 27.2899 42.3062 27.4865 42.1926L29.9671 40.7584L32.4476 42.1926C32.6443 42.3064 32.8772 42.3673 33.1156 42.3673C33.3541 42.3673 33.587 42.3064 33.7836 42.1926L36.2642 40.7594L38.7448 42.1916C38.9221 42.2935 39.129 42.3528 39.3432 42.363C39.5574 42.3732 39.7709 42.334 39.9607 42.2496C40.1505 42.1651 40.3095 42.0387 40.4205 41.8838C40.5316 41.7289 40.5906 41.5514 40.5911 41.3704V23.4305C40.5892 22.1094 39.9663 20.8428 38.8591 19.9086C37.7519 18.9744 36.2507 18.4488 34.6849 18.4473H25.235ZM32.3224 32.4005H25.235C24.9217 32.4005 24.6213 32.2954 24.3998 32.1085C24.1782 31.9216 24.0538 31.6681 24.0538 31.4038C24.0538 31.1395 24.1782 30.886 24.3998 30.6991C24.6213 30.5121 24.9217 30.4071 25.235 30.4071H32.3224C32.6357 30.4071 32.9362 30.5121 33.1577 30.6991C33.3792 30.886 33.5037 31.1395 33.5037 31.4038C33.5037 31.6681 33.3792 31.9216 33.1577 32.1085C32.9362 32.2954 32.6357 32.4005 32.3224 32.4005ZM35.8661 27.4172C35.8661 27.6815 35.7417 27.935 35.5202 28.1219C35.2986 28.3088 34.9982 28.4138 34.6849 28.4138H25.235C24.9217 28.4138 24.6213 28.3088 24.3998 28.1219C24.1782 27.935 24.0538 27.6815 24.0538 27.4172C24.0538 27.1528 24.1782 26.8993 24.3998 26.7124C24.6213 26.5255 24.9217 26.4205 25.235 26.4205H34.6849C34.9982 26.4205 35.2986 26.5255 35.5202 26.7124C35.7417 26.8993 35.8661 27.1528 35.8661 27.4172Z" fill="url(#paint1_linear_245_7347)"/>
<defs>
<linearGradient id="paint0_linear_245_7347" x1="-9.56562" y1="35.8333" x2="69.9974" y2="17.6271" gradientUnits="userSpaceOnUse">
<stop stop-color="#F6DEC6"/>
<stop offset="0.47" stop-color="#E872D4"/>
<stop offset="0.656667" stop-color="#C190D9"/>
<stop offset="0.881578" stop-color="#A2DCFE"/>
</linearGradient>
<linearGradient id="paint1_linear_245_7347" x1="15.9391" y1="32.5335" x2="44.4314" y2="26.7381" gradientUnits="userSpaceOnUse">
<stop stop-color="#F6DEC6"/>
<stop offset="0.47" stop-color="#E872D4"/>
<stop offset="0.656667" stop-color="#C190D9"/>
<stop offset="0.881578" stop-color="#A2DCFE"/>
</linearGradient>
</defs>
</svg>
