<svg width="18" height="19" viewBox="0 0 18 19" fill="none" xmlns="http://www.w3.org/2000/svg">
<path d="M9 1.5C13.4183 1.5 17 5.08166 17 9.5C17 13.9183 13.4183 17.5 9 17.5C4.58166 17.5 1 13.9183 1 9.5C1 5.08166 4.58166 1.5 9 1.5ZM5.80016 10.4206H9.48138L7.92744 11.8992C7.55925 12.249 7.54463 12.8324 7.89519 13.2006C8.24575 13.5693 8.82841 13.5839 9.19684 13.2329L13.0091 9.60612C13.0381 9.57837 13.0545 9.54009 13.0545 9.5C13.0545 9.45994 13.0381 9.42162 13.0091 9.39391L9.19681 5.76687C8.82837 5.41606 8.24572 5.43044 7.89516 5.79913C7.54459 6.16756 7.55922 6.75075 7.92741 7.10078L9.48134 8.57912H5.80013C5.29131 8.57912 4.87928 8.99116 4.87928 9.49997C4.87928 10.0088 5.29131 10.4206 5.80016 10.4206Z" fill="white"/>
</svg>
