<svg width="16" height="16" viewBox="0 0 16 16" fill="none" xmlns="http://www.w3.org/2000/svg">
<g clip-path="url(#clip0_245_6968)">
<path d="M7.99997 0.888672C11.9274 0.888672 15.1111 4.07237 15.1111 7.99978C15.1111 11.9272 11.9274 15.1109 7.99997 15.1109C4.07256 15.1109 0.888863 11.9272 0.888863 7.99978C0.888863 4.07237 4.07256 0.888672 7.99997 0.888672ZM5.15567 8.81812H8.42786L7.04659 10.1324C6.71931 10.4433 6.70631 10.9619 7.01792 11.2892C7.32953 11.6169 7.84745 11.6299 8.17495 11.3179L11.5636 8.09412C11.5894 8.06945 11.6039 8.03542 11.6039 7.99978C11.6039 7.96417 11.5894 7.93012 11.5636 7.90548L8.17492 4.68145C7.84742 4.36962 7.3295 4.38239 7.01789 4.71012C6.70628 5.03762 6.71928 5.55601 7.04656 5.86714L8.42783 7.18123H5.15564C4.70336 7.18123 4.33711 7.54748 4.33711 7.99975C4.33711 8.45203 4.70336 8.81812 5.15567 8.81812Z" fill="#232B31"/>
</g>
<defs>
<clipPath id="clip0_245_6968">
<rect width="16" height="16" fill="white" transform="matrix(-1 0 0 1 16 0)"/>
</clipPath>
</defs>
</svg>
