<svg width="1920" height="1080" viewBox="0 0 1920 1080" fill="none" xmlns="http://www.w3.org/2000/svg">
<g clip-path="url(#clip0_537_7361)">
<rect width="1920" height="1080" fill="#F0F1F2"/>
<rect width="1920" height="1000" fill="url(#paint0_linear_537_7361)"/>
<rect y="6" width="1920" height="1022" fill="url(#paint1_linear_537_7361)"/>
<path d="M778.379 472.639C779.539 474.649 778.851 477.219 776.841 478.379C774.831 479.54 772.261 478.851 771.101 476.841C769.941 474.831 770.629 472.261 772.639 471.101C774.649 469.941 777.219 470.629 778.379 472.639ZM772.606 475.972C773.287 477.151 774.794 477.555 775.972 476.874C777.151 476.194 777.554 474.687 776.874 473.508C776.194 472.33 774.687 471.926 773.508 472.606C772.33 473.287 771.926 474.794 772.606 475.972Z" fill="white"/>
<path d="M963.379 550.639C964.539 552.649 963.851 555.219 961.841 556.379C959.831 557.54 957.261 556.851 956.101 554.841C954.941 552.831 955.629 550.261 957.639 549.101C959.649 547.941 962.219 548.629 963.379 550.639ZM957.606 553.972C958.287 555.151 959.794 555.555 960.972 554.874C962.151 554.194 962.554 552.687 961.874 551.508C961.194 550.33 959.687 549.926 958.508 550.606C957.33 551.287 956.926 552.794 957.606 553.972Z" fill="white"/>
<path d="M1199.38 449.639C1200.54 451.649 1199.85 454.219 1197.84 455.379C1195.83 456.54 1193.26 455.851 1192.1 453.841C1190.94 451.831 1191.63 449.261 1193.64 448.101C1195.65 446.941 1198.22 447.629 1199.38 449.639ZM1193.61 452.972C1194.29 454.151 1195.79 454.555 1196.97 453.874C1198.15 453.194 1198.55 451.687 1197.87 450.508C1197.19 449.33 1195.69 448.926 1194.51 449.606C1193.33 450.287 1192.93 451.794 1193.61 452.972Z" fill="white"/>
<path d="M1538.38 377.639C1539.54 379.649 1538.85 382.219 1536.84 383.379C1534.83 384.54 1532.26 383.851 1531.1 381.841C1529.94 379.831 1530.63 377.261 1532.64 376.101C1534.65 374.941 1537.22 375.629 1538.38 377.639ZM1532.61 380.972C1533.29 382.151 1534.79 382.555 1535.97 381.874C1537.15 381.194 1537.55 379.687 1536.87 378.508C1536.19 377.33 1534.69 376.926 1533.51 377.606C1532.33 378.287 1531.93 379.794 1532.61 380.972Z" fill="white"/>
<path d="M1301.38 492.639C1302.54 494.649 1301.85 497.219 1299.84 498.379C1297.83 499.54 1295.26 498.851 1294.1 496.841C1292.94 494.831 1293.63 492.261 1295.64 491.101C1297.65 489.941 1300.22 490.629 1301.38 492.639ZM1295.61 495.972C1296.29 497.151 1297.79 497.555 1298.97 496.874C1300.15 496.194 1300.55 494.687 1299.87 493.508C1299.19 492.33 1297.69 491.926 1296.51 492.606C1295.33 493.287 1294.93 494.794 1295.61 495.972Z" fill="white"/>
<path d="M595.379 551.639C596.539 553.649 595.851 556.219 593.841 557.379C591.831 558.54 589.261 557.851 588.101 555.841C586.941 553.831 587.629 551.261 589.639 550.101C591.649 548.941 594.219 549.629 595.379 551.639ZM589.606 554.972C590.287 556.151 591.794 556.555 592.972 555.874C594.151 555.194 594.554 553.687 593.874 552.508C593.194 551.33 591.687 550.926 590.508 551.606C589.33 552.287 588.926 553.794 589.606 554.972Z" fill="white"/>
<path d="M291.379 597.639C292.539 599.649 291.851 602.219 289.841 603.379C287.831 604.54 285.261 603.851 284.101 601.841C282.941 599.831 283.629 597.261 285.639 596.101C287.649 594.941 290.219 595.629 291.379 597.639ZM285.606 600.972C286.287 602.151 287.794 602.555 288.972 601.874C290.151 601.194 290.554 599.687 289.874 598.508C289.194 597.33 287.687 596.926 286.508 597.606C285.33 598.287 284.926 599.794 285.606 600.972Z" fill="white"/>
<path d="M182.379 552.639C183.539 554.649 182.851 557.219 180.841 558.379C178.831 559.54 176.261 558.851 175.101 556.841C173.941 554.831 174.629 552.261 176.639 551.101C178.649 549.941 181.219 550.629 182.379 552.639ZM176.606 555.972C177.287 557.151 178.794 557.555 179.972 556.874C181.151 556.194 181.554 554.687 180.874 553.508C180.194 552.33 178.687 551.926 177.508 552.606C176.33 553.287 175.926 554.794 176.606 555.972Z" fill="white"/>
<path d="M174.477 555.357L-169.974 704.543C-173.632 706.127 -176 709.733 -176 713.719V1018C-176 1023.52 -171.523 1028 -166 1028H2098C2103.52 1028 2108 1023.52 2108 1018V661.605C2108 657.619 2105.63 654.013 2101.97 652.429L1786.89 515.963L1539.54 381.47C1536.69 379.921 1533.27 379.85 1530.36 381.279L1301.76 493.521C1299.13 494.813 1296.07 494.886 1293.38 493.721L1199.39 453.012C1196.85 451.914 1193.98 451.914 1191.44 453.012L963.088 551.914C960.553 553.012 957.675 553.012 955.14 551.914L778.977 475.616C776.441 474.518 773.564 474.518 771.028 475.616L592.06 553.129C591.284 553.465 590.467 553.702 589.631 553.833L290.766 600.593C288.896 600.885 286.982 600.641 285.245 599.889L182.426 555.357C179.89 554.259 177.013 554.259 174.477 555.357Z" fill="url(#paint2_linear_537_7361)" fill-opacity="0.17"/>
</g>
<defs>
<linearGradient id="paint0_linear_537_7361" x1="-416.842" y1="1276.32" x2="2057.61" y2="-883.132" gradientUnits="userSpaceOnUse">
<stop offset="0.0622519" stop-color="#F6DEC6"/>
<stop offset="0.401208" stop-color="#E872D4"/>
<stop offset="0.58509" stop-color="#C190D9"/>
<stop offset="0.881578" stop-color="#A2DCFE"/>
</linearGradient>
<linearGradient id="paint1_linear_537_7361" x1="942.43" y1="-751.337" x2="955.71" y2="1765.97" gradientUnits="userSpaceOnUse">
<stop offset="0.344751" stop-color="#F0F1F2" stop-opacity="0"/>
<stop offset="0.500083" stop-color="#F0F1F2" stop-opacity="0.443766"/>
<stop offset="0.68705" stop-color="#F0F1F2"/>
</linearGradient>
<linearGradient id="paint2_linear_537_7361" x1="966" y1="399.805" x2="966" y2="1028" gradientUnits="userSpaceOnUse">
<stop offset="0.115769" stop-color="white"/>
<stop offset="0.45" stop-color="white" stop-opacity="0"/>
</linearGradient>
<clipPath id="clip0_537_7361">
<rect width="1920" height="1080" fill="white"/>
</clipPath>
</defs>
</svg>
