<svg width="18" height="19" viewBox="0 0 18 19" fill="none" xmlns="http://www.w3.org/2000/svg">
<path d="M17 5.74156C17 6.2174 16.568 6.60672 16.04 6.60672H1.96C1.432 6.60672 1 6.2174 1 5.74156V5.73435C1 4.08335 2.48 2.74957 4.312 2.74957H13.68C15.512 2.74957 17 4.09056 17 5.74156Z" fill="#232B31"/>
<path d="M1 8.57721V12.7781C1 14.6983 2.48 16.2496 4.312 16.2496H13.68C15.512 16.2496 17 14.6899 17 12.7698V8.57721C17 8.0238 16.568 7.571 16.04 7.571H1.96C1.432 7.571 1 8.0238 1 8.57721ZM5.8 13.4406H4.2C3.872 13.4406 3.6 13.1555 3.6 12.8117C3.6 12.4679 3.872 12.1828 4.2 12.1828H5.8C6.128 12.1828 6.4 12.4679 6.4 12.8117C6.4 13.1555 6.128 13.4406 5.8 13.4406ZM11 13.4406H7.8C7.472 13.4406 7.2 13.1555 7.2 12.8117C7.2 12.4679 7.472 12.1828 7.8 12.1828H11C11.328 12.1828 11.6 12.4679 11.6 12.8117C11.6 13.1555 11.328 13.4406 11 13.4406Z" fill="#232B31"/>
<path d="M17 5.74156C17 6.2174 16.568 6.60672 16.04 6.60672H1.96C1.432 6.60672 1 6.2174 1 5.74156V5.73435C1 4.08335 2.48 2.74957 4.312 2.74957H13.68C15.512 2.74957 17 4.09056 17 5.74156Z" stroke="url(#paint0_linear_29_620)"/>
<path d="M1 8.57721V12.7781C1 14.6983 2.48 16.2496 4.312 16.2496H13.68C15.512 16.2496 17 14.6899 17 12.7698V8.57721C17 8.0238 16.568 7.571 16.04 7.571H1.96C1.432 7.571 1 8.0238 1 8.57721ZM5.8 13.4406H4.2C3.872 13.4406 3.6 13.1555 3.6 12.8117C3.6 12.4679 3.872 12.1828 4.2 12.1828H5.8C6.128 12.1828 6.4 12.4679 6.4 12.8117C6.4 13.1555 6.128 13.4406 5.8 13.4406ZM11 13.4406H7.8C7.472 13.4406 7.2 13.1555 7.2 12.8117C7.2 12.4679 7.472 12.1828 7.8 12.1828H11C11.328 12.1828 11.6 12.4679 11.6 12.8117C11.6 13.1555 11.328 13.4406 11 13.4406Z" stroke="url(#paint1_linear_29_620)"/>
<defs>
<linearGradient id="paint0_linear_29_620" x1="9" y1="2.74957" x2="9" y2="16.2496" gradientUnits="userSpaceOnUse">
<stop stop-color="#CDE8E5"/>
<stop offset="1" stop-color="#124AE8" stop-opacity="0.7"/>
</linearGradient>
<linearGradient id="paint1_linear_29_620" x1="9" y1="2.74957" x2="9" y2="16.2496" gradientUnits="userSpaceOnUse">
<stop stop-color="#CDE8E5"/>
<stop offset="1" stop-color="#124AE8" stop-opacity="0.7"/>
</linearGradient>
</defs>
</svg>
