<svg width="18" height="19" viewBox="0 0 18 19" fill="none" xmlns="http://www.w3.org/2000/svg">
<path d="M17 5.7415C17 6.21734 16.568 6.60665 16.04 6.60665H1.96C1.432 6.60665 1 6.21734 1 5.7415V5.73429C1 4.08329 2.48 2.74951 4.312 2.74951H13.68C15.512 2.74951 17 4.0905 17 5.7415Z" fill="#232B31"/>
<path d="M1 8.57715V12.7781C1 14.6983 2.48 16.2495 4.312 16.2495H13.68C15.512 16.2495 17 14.6899 17 12.7697V8.57715C17 8.02374 16.568 7.57094 16.04 7.57094H1.96C1.432 7.57094 1 8.02374 1 8.57715ZM5.8 13.4405H4.2C3.872 13.4405 3.6 13.1554 3.6 12.8116C3.6 12.4678 3.872 12.1827 4.2 12.1827H5.8C6.128 12.1827 6.4 12.4678 6.4 12.8116C6.4 13.1554 6.128 13.4405 5.8 13.4405ZM11 13.4405H7.8C7.472 13.4405 7.2 13.1554 7.2 12.8116C7.2 12.4678 7.472 12.1827 7.8 12.1827H11C11.328 12.1827 11.6 12.4678 11.6 12.8116C11.6 13.1554 11.328 13.4405 11 13.4405Z" fill="#232B31"/>
<path d="M17 5.7415C17 6.21734 16.568 6.60665 16.04 6.60665H1.96C1.432 6.60665 1 6.21734 1 5.7415V5.73429C1 4.08329 2.48 2.74951 4.312 2.74951H13.68C15.512 2.74951 17 4.0905 17 5.7415Z" stroke="url(#paint0_linear_294_409)"/>
<path d="M1 8.57715V12.7781C1 14.6983 2.48 16.2495 4.312 16.2495H13.68C15.512 16.2495 17 14.6899 17 12.7697V8.57715C17 8.02374 16.568 7.57094 16.04 7.57094H1.96C1.432 7.57094 1 8.02374 1 8.57715ZM5.8 13.4405H4.2C3.872 13.4405 3.6 13.1554 3.6 12.8116C3.6 12.4678 3.872 12.1827 4.2 12.1827H5.8C6.128 12.1827 6.4 12.4678 6.4 12.8116C6.4 13.1554 6.128 13.4405 5.8 13.4405ZM11 13.4405H7.8C7.472 13.4405 7.2 13.1554 7.2 12.8116C7.2 12.4678 7.472 12.1827 7.8 12.1827H11C11.328 12.1827 11.6 12.4678 11.6 12.8116C11.6 13.1554 11.328 13.4405 11 13.4405Z" stroke="url(#paint1_linear_294_409)"/>
<defs>
<linearGradient id="paint0_linear_294_409" x1="-1.55083" y1="10.6995" x2="19.2472" y2="5.05902" gradientUnits="userSpaceOnUse">
<stop stop-color="#F6DEC6"/>
<stop offset="0.47" stop-color="#E872D4"/>
<stop offset="0.656667" stop-color="#C190D9"/>
<stop offset="0.881578" stop-color="#A2DCFE"/>
</linearGradient>
<linearGradient id="paint1_linear_294_409" x1="-1.55083" y1="10.6995" x2="19.2472" y2="5.05902" gradientUnits="userSpaceOnUse">
<stop stop-color="#F6DEC6"/>
<stop offset="0.47" stop-color="#E872D4"/>
<stop offset="0.656667" stop-color="#C190D9"/>
<stop offset="0.881578" stop-color="#A2DCFE"/>
</linearGradient>
</defs>
</svg>
