<svg width="18" height="19" viewBox="0 0 18 19" fill="none" xmlns="http://www.w3.org/2000/svg">
<g clip-path="url(#clip0_245_6180)">
<path fill-rule="evenodd" clip-rule="evenodd" d="M0 2C0 1.17157 0.671573 0.5 1.5 0.5H3C3.82843 0.5 4.5 1.17157 4.5 2V3.5C4.5 4.32843 3.82843 5 3 5H1.5C0.671573 5 0 4.32843 0 3.5V2ZM0 8.75C0 7.92157 0.671573 7.25 1.5 7.25H3C3.82843 7.25 4.5 7.92157 4.5 8.75V10.25C4.5 11.0784 3.82843 11.75 3 11.75H1.5C0.671573 11.75 0 11.0784 0 10.25V8.75ZM0 15.5C0 14.6716 0.671573 14 1.5 14H3C3.82843 14 4.5 14.6716 4.5 15.5V17C4.5 17.8284 3.82843 18.5 3 18.5H1.5C0.671573 18.5 0 17.8284 0 17V15.5ZM6.75 2C6.75 1.17157 7.42157 0.5 8.25 0.5H9.75C10.5784 0.5 11.25 1.17157 11.25 2V3.5C11.25 4.32843 10.5784 5 9.75 5H8.25C7.42157 5 6.75 4.32843 6.75 3.5V2ZM6.75 8.75C6.75 7.92157 7.42157 7.25 8.25 7.25H9.75C10.5784 7.25 11.25 7.92157 11.25 8.75V10.25C11.25 11.0784 10.5784 11.75 9.75 11.75H8.25C7.42157 11.75 6.75 11.0784 6.75 10.25V8.75ZM6.75 15.5C6.75 14.6716 7.42157 14 8.25 14H9.75C10.5784 14 11.25 14.6716 11.25 15.5V17C11.25 17.8284 10.5784 18.5 9.75 18.5H8.25C7.42157 18.5 6.75 17.8284 6.75 17V15.5ZM13.5 2C13.5 1.17157 14.1716 0.5 15 0.5H16.5C17.3284 0.5 18 1.17157 18 2V3.5C18 4.32843 17.3284 5 16.5 5H15C14.1716 5 13.5 4.32843 13.5 3.5V2ZM13.5 8.75C13.5 7.92157 14.1716 7.25 15 7.25H16.5C17.3284 7.25 18 7.92157 18 8.75V10.25C18 11.0784 17.3284 11.75 16.5 11.75H15C14.1716 11.75 13.5 11.0784 13.5 10.25V8.75ZM13.5 15.5C13.5 14.6716 14.1716 14 15 14H16.5C17.3284 14 18 14.6716 18 15.5V17C18 17.8284 17.3284 18.5 16.5 18.5H15C14.1716 18.5 13.5 17.8284 13.5 17V15.5Z" fill="white"/>
</g>
<defs>
<clipPath id="clip0_245_6180">
<rect width="18" height="18" fill="white" transform="translate(0 0.5)"/>
</clipPath>
</defs>
</svg>
