<svg width="18" height="18" viewBox="0 0 18 18" fill="none" xmlns="http://www.w3.org/2000/svg">
<path fill-rule="evenodd" clip-rule="evenodd" d="M6 13.5C6 13.2239 5.7417 13 5.42308 13H1.57692C1.2583 13 1 13.2239 1 13.5C1 13.7761 1.2583 14 1.57692 14H5.42308C5.7417 14 6 13.7761 6 13.5Z" fill="#232B31"/>
<path fill-rule="evenodd" clip-rule="evenodd" d="M12 4.5C12 4.22386 12.2583 4 12.5769 4H16.4231C16.7417 4 17 4.22386 17 4.5C17 4.77614 16.7417 5 16.4231 5H12.5769C12.2583 5 12 4.77614 12 4.5Z" fill="#232B31"/>
<path fill-rule="evenodd" clip-rule="evenodd" d="M17 13.5C17 13.2239 16.7442 13 16.4286 13H9.57143C9.25585 13 9 13.2239 9 13.5C9 13.7761 9.25585 14 9.57143 14H16.4286C16.7442 14 17 13.7761 17 13.5Z" fill="#232B31"/>
<path fill-rule="evenodd" clip-rule="evenodd" d="M1 4.5C1 4.22386 1.25584 4 1.57143 4H8.42857C8.74415 4 9 4.22386 9 4.5C9 4.77614 8.74415 5 8.42857 5H1.57143C1.25584 5 1 4.77614 1 4.5Z" fill="#232B31"/>
<path fill-rule="evenodd" clip-rule="evenodd" d="M11 13.5C11 11.567 9.43303 10 7.5 10C5.567 10 4 11.567 4 13.5C4 15.433 5.567 17 7.5 17C9.43303 17 11 15.433 11 13.5Z" fill="#232B31"/>
<path fill-rule="evenodd" clip-rule="evenodd" d="M7 4.5C7 2.567 8.56697 1 10.5 1C12.433 1 14 2.567 14 4.5C14 6.433 12.433 8 10.5 8C8.56697 8 7 6.433 7 4.5Z" fill="#232B31"/>
</svg>
