<svg width="16" height="14" viewBox="0 0 16 14" fill="none" xmlns="http://www.w3.org/2000/svg">
<path d="M14.376 5.19894H12.024C11.008 5.19894 10.4 4.63448 10.4 3.69125V1.50769C10.4 0.564456 11.008 0 12.024 0H14.376C15.392 0 16 0.564456 16 1.50769V3.69125C16 4.63448 15.392 5.19894 14.376 5.19894ZM14.552 2.74058C14.456 2.65146 14.328 2.6069 14.2 2.6069C14.072 2.6069 13.944 2.65146 13.848 2.74058L13.704 2.87427V1.21061C13.704 0.950663 13.48 0.742706 13.2 0.742706C12.92 0.742706 12.696 0.950663 12.696 1.21061V2.87427L12.552 2.74058C12.36 2.56233 12.04 2.56233 11.848 2.74058C11.656 2.91883 11.656 3.21592 11.848 3.39416L12.848 4.32255C12.888 4.35968 12.944 4.38939 13 4.41167C13.016 4.4191 13.032 4.4191 13.048 4.42653C13.088 4.44138 13.128 4.44881 13.176 4.44881C13.192 4.44881 13.208 4.44881 13.224 4.44881C13.28 4.44881 13.328 4.44138 13.384 4.4191C13.392 4.4191 13.392 4.4191 13.4 4.4191C13.456 4.39682 13.504 4.36711 13.544 4.32997C13.552 4.32255 13.552 4.32255 13.56 4.32255L14.56 3.39416C14.752 3.21592 14.752 2.91883 14.552 2.74058Z" fill="#27A963"/>
<path d="M0 7.21167V10.9252C0 12.626 1.48 14 3.312 14H12.68C14.512 14 16 12.6186 16 10.9178V7.21167C16 6.71406 15.568 6.313 15.032 6.313H0.968C0.432 6.313 0 6.71406 0 7.21167ZM4.8 11.5119H3.2C2.872 11.5119 2.6 11.2594 2.6 10.9549C2.6 10.6504 2.872 10.3979 3.2 10.3979H4.8C5.128 10.3979 5.4 10.6504 5.4 10.9549C5.4 11.2594 5.128 11.5119 4.8 11.5119ZM10 11.5119H6.8C6.472 11.5119 6.2 11.2594 6.2 10.9549C6.2 10.6504 6.472 10.3979 6.8 10.3979H10C10.328 10.3979 10.6 10.6504 10.6 10.9549C10.6 11.2594 10.328 11.5119 10 11.5119Z" fill="#27A963"/>
<path d="M9.2 2.12298V4.29911C9.2 4.79672 8.768 5.19778 8.232 5.19778H0.968C0.424 5.19778 0 4.78187 0 4.28425C0.008 3.445 0.368 2.68001 0.968 2.12298C1.568 1.56595 2.4 1.22431 3.312 1.22431H8.232C8.768 1.22431 9.2 1.62537 9.2 2.12298Z" fill="#27A963"/>
</svg>
