<svg width="16" height="18" viewBox="0 0 16 18" fill="none" xmlns="http://www.w3.org/2000/svg">
<path fill-rule="evenodd" clip-rule="evenodd" d="M1.30331 1.09965C2.1365 0.396657 3.26614 0.00119088 4.44444 0H11.5556C12.7339 0.00119088 13.8635 0.396657 14.6967 1.09965C15.5299 1.80265 15.9986 2.75577 16 3.74996V17.2498C15.9996 17.386 15.9552 17.5196 15.8717 17.6362C15.7881 17.7527 15.6685 17.8479 15.5257 17.9114C15.3828 17.975 15.2222 18.0045 15.061 17.9968C14.8998 17.9891 14.7441 17.9445 14.6107 17.8678L12.744 16.7901L10.8773 17.8686C10.7293 17.9542 10.5541 18 10.3747 18C10.1952 18 10.02 17.9542 9.872 17.8686L8.00533 16.7893L6.13867 17.8686C5.99077 17.954 5.8157 17.9997 5.63644 17.9997C5.45719 17.9997 5.28212 17.954 5.13422 17.8686L3.26222 16.7893L1.39022 17.8686C1.25671 17.9455 1.10086 17.9903 0.939449 17.998C0.778034 18.0058 0.617168 17.9762 0.474167 17.9126C0.331166 17.849 0.211446 17.7536 0.127895 17.6368C0.0443435 17.52 0.000125232 17.3862 0 17.2498V3.74996C0.00141143 2.75577 0.470117 1.80265 1.30331 1.09965ZM8 13C10.7614 13 13 10.7614 13 8C13 5.23858 10.7614 3 8 3C5.23858 3 3 5.23858 3 8C3 10.7614 5.23858 13 8 13Z" fill="#27A963"/>
<path d="M8 11L8 5M8 5L11 8M8 5L5 8" stroke="#27A963" stroke-width="0.833333" stroke-linecap="round"/>
</svg>
