<svg width="18" height="18" viewBox="0 0 18 18" fill="none" xmlns="http://www.w3.org/2000/svg">
<path d="M12.3404 12.9975V17H15.0087C16.114 17 17.01 16.104 17.01 14.9988V8.91431C17.0101 8.56775 16.8754 8.23473 16.6344 7.98573L10.9655 1.85723C9.9653 0.774991 8.27712 0.708544 7.19489 1.70879C7.14348 1.75632 7.09395 1.80582 7.04645 1.85723L1.38759 7.98373C1.13924 8.23376 0.999906 8.57191 1 8.92432V14.9988C1 16.104 1.896 17 3.00125 17H5.66956V12.9975C5.68204 11.1785 7.15067 9.69308 8.92387 9.6503C10.7564 9.60608 12.3264 11.1168 12.3404 12.9975Z" fill="#B6B8BA"/>
<path d="M9.00498 10.996C7.89973 10.996 7.00374 11.892 7.00374 12.9972V16.9997H11.0062V12.9972C11.0062 11.892 10.1102 10.996 9.00498 10.996Z" fill="#B6B8BA"/>
</svg>
