<svg width="18" height="18" viewBox="0 0 18 18" fill="none" xmlns="http://www.w3.org/2000/svg">
<path d="M5.44444 0C4.26614 0.00119088 3.1365 0.396657 2.30331 1.09965C1.47012 1.80265 1.00141 2.75577 1 3.74996V17.2498C1.00013 17.3862 1.04434 17.52 1.12789 17.6368C1.21145 17.7536 1.33117 17.849 1.47417 17.9126C1.61717 17.9762 1.77803 18.0058 1.93945 17.998C2.10086 17.9903 2.25671 17.9455 2.39022 17.8686L4.26222 16.7893L6.13422 17.8686C6.28212 17.954 6.45719 17.9997 6.63644 17.9997C6.8157 17.9997 6.99077 17.954 7.13867 17.8686L9.00533 16.7893L10.872 17.8686C11.02 17.9542 11.1952 18 11.3747 18C11.5541 18 11.7293 17.9542 11.8773 17.8686L13.744 16.7901L15.6107 17.8678C15.7441 17.9445 15.8998 17.9891 16.061 17.9968C16.2222 18.0045 16.3828 17.975 16.5257 17.9114C16.6685 17.8479 16.7881 17.7527 16.8717 17.6362C16.9552 17.5196 16.9996 17.386 17 17.2498V3.74996C16.9986 2.75577 16.5299 1.80265 15.6967 1.09965C14.8635 0.396657 13.7339 0.00119088 12.5556 0L5.44444 0ZM10.7778 10.4999H5.44444C5.2087 10.4999 4.9826 10.4209 4.81591 10.2802C4.64921 10.1396 4.55556 9.94881 4.55556 9.7499C4.55556 9.55099 4.64921 9.36022 4.81591 9.21957C4.9826 9.07892 5.2087 8.99991 5.44444 8.99991H10.7778C11.0135 8.99991 11.2396 9.07892 11.4063 9.21957C11.573 9.36022 11.6667 9.55099 11.6667 9.7499C11.6667 9.94881 11.573 10.1396 11.4063 10.2802C11.2396 10.4209 11.0135 10.4999 10.7778 10.4999ZM13.4444 6.74993C13.4444 6.94884 13.3508 7.1396 13.1841 7.28025C13.0174 7.4209 12.7913 7.49992 12.5556 7.49992H5.44444C5.2087 7.49992 4.9826 7.4209 4.81591 7.28025C4.64921 7.1396 4.55556 6.94884 4.55556 6.74993C4.55556 6.55102 4.64921 6.36026 4.81591 6.2196C4.9826 6.07895 5.2087 5.99994 5.44444 5.99994H12.5556C12.7913 5.99994 13.0174 6.07895 13.1841 6.2196C13.3508 6.36026 13.4444 6.55102 13.4444 6.74993Z" fill="#CDCED1"/>
</svg>
