<svg width="18" height="19" viewBox="0 0 18 19" fill="none" xmlns="http://www.w3.org/2000/svg">
<path d="M5.44444 0.499573C4.26614 0.500764 3.1365 0.89623 2.30331 1.59923C1.47012 2.30222 1.00141 3.25535 1 4.24953V17.7494C1.00013 17.8858 1.04434 18.0196 1.12789 18.1364C1.21145 18.2532 1.33117 18.3485 1.47417 18.4122C1.61717 18.4758 1.77803 18.5053 1.93945 18.4976C2.10086 18.4898 2.25671 18.4451 2.39022 18.3681L4.26222 17.2889L6.13422 18.3681C6.28212 18.4536 6.45719 18.4993 6.63644 18.4993C6.8157 18.4993 6.99077 18.4536 7.13867 18.3681L9.00533 17.2889L10.872 18.3681C11.02 18.4538 11.1952 18.4996 11.3747 18.4996C11.5541 18.4996 11.7293 18.4538 11.8773 18.3681L13.744 17.2896L15.6107 18.3674C15.7441 18.4441 15.8998 18.4887 16.061 18.4963C16.2222 18.504 16.3828 18.4745 16.5257 18.411C16.6685 18.3475 16.7881 18.2523 16.8717 18.1357C16.9552 18.0192 16.9996 17.8856 17 17.7494V4.24953C16.9986 3.25535 16.5299 2.30222 15.6967 1.59923C14.8635 0.89623 13.7339 0.500764 12.5556 0.499573L5.44444 0.499573ZM10.7778 10.9995H5.44444C5.2087 10.9995 4.9826 10.9204 4.81591 10.7798C4.64921 10.6391 4.55556 10.4484 4.55556 10.2495C4.55556 10.0506 4.64921 9.8598 4.81591 9.71915C4.9826 9.5785 5.2087 9.49948 5.44444 9.49948H10.7778C11.0135 9.49948 11.2396 9.5785 11.4063 9.71915C11.573 9.8598 11.6667 10.0506 11.6667 10.2495C11.6667 10.4484 11.573 10.6391 11.4063 10.7798C11.2396 10.9204 11.0135 10.9995 10.7778 10.9995ZM13.4444 7.2495C13.4444 7.44841 13.3508 7.63918 13.1841 7.77983C13.0174 7.92048 12.7913 7.99949 12.5556 7.99949H5.44444C5.2087 7.99949 4.9826 7.92048 4.81591 7.77983C4.64921 7.63918 4.55556 7.44841 4.55556 7.2495C4.55556 7.05059 4.64921 6.85983 4.81591 6.71918C4.9826 6.57853 5.2087 6.49951 5.44444 6.49951H12.5556C12.7913 6.49951 13.0174 6.57853 13.1841 6.71918C13.3508 6.85983 13.4444 7.05059 13.4444 7.2495Z" fill="#232B31" stroke="url(#paint0_linear_29_1800)"/>
<defs>
<linearGradient id="paint0_linear_29_1800" x1="9" y1="0.499573" x2="9" y2="18.4996" gradientUnits="userSpaceOnUse">
<stop stop-color="#CDE8E5"/>
<stop offset="1" stop-color="#124AE8" stop-opacity="0.7"/>
</linearGradient>
</defs>
</svg>
