<svg width="18" height="19" viewBox="0 0 18 19" fill="none" xmlns="http://www.w3.org/2000/svg">
<path d="M5.44444 0.499512C4.26614 0.500703 3.1365 0.896169 2.30331 1.59917C1.47012 2.30216 1.00141 3.25529 1 4.24947V17.7493C1.00013 17.8857 1.04434 18.0195 1.12789 18.1363C1.21145 18.2531 1.33117 18.3485 1.47417 18.4121C1.61717 18.4758 1.77803 18.5053 1.93945 18.4975C2.10086 18.4898 2.25671 18.445 2.39022 18.3681L4.26222 17.2888L6.13422 18.3681C6.28212 18.4535 6.45719 18.4993 6.63644 18.4993C6.8157 18.4993 6.99077 18.4535 7.13867 18.3681L9.00533 17.2888L10.872 18.3681C11.02 18.4537 11.1952 18.4995 11.3747 18.4995C11.5541 18.4995 11.7293 18.4537 11.8773 18.3681L13.744 17.2896L15.6107 18.3673C15.7441 18.444 15.8998 18.4886 16.061 18.4963C16.2222 18.504 16.3828 18.4745 16.5257 18.4109C16.6685 18.3474 16.7881 18.2522 16.8717 18.1357C16.9552 18.0191 16.9996 17.8856 17 17.7493V4.24947C16.9986 3.25529 16.5299 2.30216 15.6967 1.59917C14.8635 0.896169 13.7339 0.500703 12.5556 0.499512L5.44444 0.499512ZM10.7778 10.9994H5.44444C5.2087 10.9994 4.9826 10.9204 4.81591 10.7797C4.64921 10.6391 4.55556 10.4483 4.55556 10.2494C4.55556 10.0505 4.64921 9.85974 4.81591 9.71908C4.9826 9.57843 5.2087 9.49942 5.44444 9.49942H10.7778C11.0135 9.49942 11.2396 9.57843 11.4063 9.71908C11.573 9.85974 11.6667 10.0505 11.6667 10.2494C11.6667 10.4483 11.573 10.6391 11.4063 10.7797C11.2396 10.9204 11.0135 10.9994 10.7778 10.9994ZM13.4444 7.24944C13.4444 7.44835 13.3508 7.63911 13.1841 7.77977C13.0174 7.92042 12.7913 7.99943 12.5556 7.99943H5.44444C5.2087 7.99943 4.9826 7.92042 4.81591 7.77977C4.64921 7.63911 4.55556 7.44835 4.55556 7.24944C4.55556 7.05053 4.64921 6.85977 4.81591 6.71912C4.9826 6.57847 5.2087 6.49945 5.44444 6.49945H12.5556C12.7913 6.49945 13.0174 6.57847 13.1841 6.71912C13.3508 6.85977 13.4444 7.05053 13.4444 7.24944Z" fill="#CDCED1"/>
</svg>
