<svg width="132" height="107" viewBox="0 0 132 107" fill="none" xmlns="http://www.w3.org/2000/svg">
<g opacity="0.5" filter="url(#filter0_f_245_12983)">
<ellipse cx="65.9062" cy="69.5" rx="35.5" ry="7.5" fill="url(#paint0_linear_245_12983)"/>
</g>
<path d="M42.453 36.2083C42.9798 33.499 43.2432 32.1443 43.8718 31.0879C44.71 29.6792 46.012 28.606 47.5547 28.0521C48.7117 27.6367 50.0918 27.6367 52.8518 27.6367L76.5847 27.6367C79.3447 27.6367 80.7247 27.6367 81.8818 28.0521C83.4245 28.606 84.7265 29.6792 85.5647 31.0879C86.1933 32.1443 86.4567 33.499 86.9835 36.2083C87.7299 40.0469 88.1031 41.9663 87.7138 43.4995C87.1947 45.5439 85.789 47.2492 83.8813 48.149C82.4505 48.8238 80.4953 48.8238 76.5847 48.8238H52.8518C48.9412 48.8238 46.9859 48.8238 45.5552 48.149C43.6475 47.2492 42.2418 45.5439 41.7227 43.4995C41.3334 41.9663 41.7066 40.0469 42.453 36.2083Z" fill="url(#paint1_linear_245_12983)"/>
<g filter="url(#filter1_bd_245_12983)">
<circle cx="65.0223" cy="23.3753" r="13.3753" fill="url(#paint2_linear_245_12983)" fill-opacity="0.4" shape-rendering="crispEdges"/>
<circle cx="65.0223" cy="23.3753" r="13.8753" stroke="url(#paint3_linear_245_12983)" shape-rendering="crispEdges"/>
</g>
<g filter="url(#filter2_b_245_12983)">
<path d="M41.9067 54.7143C41.9067 60.3949 46.5118 65 52.1925 65L77.621 65C83.3017 65 87.9067 60.3949 87.9067 54.7143C87.9067 47.1401 81.7608 41 74.1866 41C67.3943 41 62.4191 41 55.6269 41C48.0527 41 41.9067 47.1401 41.9067 54.7143Z" fill="url(#paint4_linear_245_12983)" fill-opacity="0.4"/>
<path d="M52.1925 65.5C46.2357 65.5 41.4067 60.6711 41.4067 54.7143C41.4067 46.8637 47.7768 40.5 55.6269 40.5L55.6667 40.5L55.7064 40.5L55.7461 40.5L55.7858 40.5L55.8254 40.5L55.8649 40.5L55.9045 40.5L55.944 40.5L55.9834 40.5L56.0228 40.5L56.0622 40.5L56.1015 40.5L56.1408 40.5L56.1801 40.5L56.2193 40.5L56.2585 40.5L56.2976 40.5L56.3367 40.5L56.3757 40.5L56.4148 40.5L56.4537 40.5L56.4927 40.5L56.5316 40.5L56.5704 40.5L56.6093 40.5L56.6481 40.5L56.6868 40.5L56.7255 40.5L56.7642 40.5L56.8029 40.5L56.8415 40.5L56.88 40.5L56.9186 40.5L56.9571 40.5L56.9955 40.5L57.0339 40.5L57.0723 40.5L57.1107 40.5L57.149 40.5L57.1873 40.5L57.2255 40.5L57.2637 40.5L57.3019 40.5L57.3401 40.5L57.3782 40.5L57.4162 40.5L57.4543 40.5L57.4923 40.5L57.5303 40.5L57.5682 40.5L57.6061 40.5L57.644 40.5L57.6818 40.5L57.7196 40.5L57.7574 40.5L57.7951 40.5L57.8328 40.5L57.8705 40.5L57.9082 40.5L57.9458 40.5L57.9834 40.5L58.0209 40.5L58.0584 40.5L58.0959 40.5L58.1334 40.5L58.1708 40.5L58.2082 40.5L58.2455 40.5L58.2829 40.5L58.3202 40.5L58.3574 40.5L58.3947 40.5L58.4319 40.5L58.4691 40.5L58.5062 40.5L58.5433 40.5L58.5804 40.5L58.6175 40.5L58.6545 40.5L58.6915 40.5L58.7285 40.5L58.7655 40.5L58.8024 40.5L58.8393 40.5L58.8761 40.5L58.913 40.5L58.9498 40.5L58.9866 40.5L59.0233 40.5L59.06 40.5L59.0967 40.5L59.1334 40.5L59.1701 40.5L59.2067 40.5L59.2433 40.5L59.2798 40.5L59.3164 40.5L59.3529 40.5L59.3894 40.5L59.4259 40.5L59.4623 40.5L59.4987 40.5L59.5351 40.5L59.5715 40.5L59.6078 40.5L59.6441 40.5L59.6804 40.5L59.7167 40.5L59.7529 40.5L59.7891 40.5L59.8253 40.5L59.8615 40.5L59.8976 40.5L59.9338 40.5L59.9699 40.5L60.006 40.5L60.042 40.5L60.078 40.5L60.1141 40.5L60.15 40.5L60.186 40.5L60.2219 40.5L60.2579 40.5L60.2938 40.5L60.3297 40.5L60.3655 40.5L60.4013 40.5L60.4372 40.5L60.473 40.5L60.5087 40.5L60.5445 40.5L60.5802 40.5L60.6159 40.5L60.6516 40.5L60.6873 40.5L60.723 40.5L60.7586 40.5L60.7942 40.5L60.8298 40.5L60.8654 40.5L60.9009 40.5L60.9365 40.5L60.972 40.5L61.0075 40.5L61.043 40.5L61.0785 40.5L61.1139 40.5L61.1493 40.5L61.1848 40.5L61.2201 40.5L61.2555 40.5L61.2909 40.5L61.3262 40.5L61.3616 40.5L61.3969 40.5L61.4322 40.5L61.4674 40.5L61.5027 40.5L61.538 40.5L61.5732 40.5L61.6084 40.5L61.6436 40.5L61.6788 40.5L61.714 40.5L61.7491 40.5L61.7843 40.5L61.8194 40.5L61.8545 40.5L61.8896 40.5L61.9247 40.5L61.9597 40.5L61.9948 40.5L62.0298 40.5L62.0649 40.5L62.0999 40.5L62.1349 40.5L62.1699 40.5L62.2048 40.5L62.2398 40.5L62.2748 40.5L62.3097 40.5L62.3446 40.5L62.3795 40.5L62.4144 40.5L62.4493 40.5L62.4842 40.5L62.5191 40.5L62.5539 40.5L62.5888 40.5L62.6236 40.5L62.6584 40.5L62.6932 40.5L62.728 40.5L62.7628 40.5L62.7976 40.5L62.8324 40.5L62.8672 40.5L62.9019 40.5L62.9367 40.5L62.9714 40.5L63.0061 40.5L63.0408 40.5L63.0755 40.5L63.1102 40.5L63.1449 40.5L63.1796 40.5L63.2143 40.5L63.2489 40.5L63.2836 40.5L63.3183 40.5L63.3529 40.5L63.3875 40.5L63.4222 40.5L63.4568 40.5L63.4914 40.5L63.526 40.5L63.5606 40.5L63.5952 40.5L63.6298 40.5L63.6644 40.5L63.699 40.5L63.7335 40.5L63.7681 40.5L63.8027 40.5L63.8372 40.5L63.8718 40.5L63.9063 40.5L63.9408 40.5L63.9754 40.5L64.0099 40.5L64.0444 40.5L64.079 40.5L64.1135 40.5L64.148 40.5L64.1825 40.5L64.217 40.5L64.2515 40.5L64.286 40.5L64.3205 40.5L64.355 40.5L64.3895 40.5L64.424 40.5L64.4585 40.5L64.493 40.5L64.5275 40.5L64.562 40.5L64.5964 40.5L64.6309 40.5L64.6654 40.5L64.6999 40.5L64.7344 40.5L64.7688 40.5L64.8033 40.5L64.8378 40.5L64.8723 40.5L64.9067 40.5L64.9412 40.5L64.9757 40.5L65.0102 40.5L65.0446 40.5L65.0791 40.5L65.1136 40.5L65.1481 40.5L65.1826 40.5L65.217 40.5L65.2515 40.5L65.286 40.5L65.3205 40.5L65.355 40.5L65.3895 40.5L65.424 40.5L65.4585 40.5L65.4929 40.5L65.5274 40.5L65.562 40.5L65.5965 40.5L65.631 40.5L65.6655 40.5L65.7 40.5L65.7345 40.5L65.769 40.5L65.8036 40.5L65.8381 40.5L65.8726 40.5L65.9072 40.5L65.9417 40.5L65.9763 40.5L66.0108 40.5L66.0454 40.5L66.08 40.5L66.1145 40.5L66.1491 40.5L66.1837 40.5L66.2183 40.5L66.2529 40.5L66.2875 40.5L66.3221 40.5L66.3567 40.5L66.3913 40.5L66.4259 40.5L66.4606 40.5L66.4952 40.5L66.5299 40.5L66.5645 40.5L66.5992 40.5L66.6339 40.5L66.6686 40.5L66.7032 40.5L66.7379 40.5L66.7727 40.5L66.8074 40.5L66.8421 40.5L66.8768 40.5L66.9116 40.5L66.9463 40.5L66.9811 40.5L67.0159 40.5L67.0506 40.5L67.0854 40.5L67.1202 40.5L67.155 40.5L67.1899 40.5L67.2247 40.5L67.2596 40.5L67.2944 40.5L67.3293 40.5L67.3642 40.5L67.399 40.5L67.4339 40.5L67.4689 40.5L67.5038 40.5L67.5387 40.5L67.5737 40.5L67.6086 40.5L67.6436 40.5L67.6786 40.5L67.7136 40.5L67.7486 40.5L67.7836 40.5L67.8187 40.5L67.8537 40.5L67.8888 40.5L67.9239 40.5L67.959 40.5L67.9941 40.5L68.0292 40.5L68.0644 40.5L68.0995 40.5L68.1347 40.5L68.1699 40.5L68.2051 40.5L68.2403 40.5L68.2755 40.5L68.3108 40.5L68.346 40.5L68.3813 40.5L68.4166 40.5L68.4519 40.5L68.4872 40.5L68.5226 40.5L68.558 40.5L68.5933 40.5L68.6287 40.5L68.6641 40.5L68.6996 40.5L68.735 40.5L68.7705 40.5L68.806 40.5L68.8415 40.5L68.877 40.5L68.9125 40.5L68.9481 40.5L68.9837 40.5L69.0193 40.5L69.0549 40.5L69.0905 40.5L69.1262 40.5L69.1619 40.5L69.1975 40.5L69.2333 40.5L69.269 40.5L69.3047 40.5L69.3405 40.5L69.3763 40.5L69.4121 40.5L69.448 40.5L69.4838 40.5L69.5197 40.5L69.5556 40.5L69.5915 40.5L69.6275 40.5L69.6634 40.5L69.6994 40.5L69.7354 40.5L69.7715 40.5L69.8075 40.5L69.8436 40.5L69.8797 40.5L69.9158 40.5L69.952 40.5L69.9882 40.5L70.0243 40.5L70.0606 40.5L70.0968 40.5L70.1331 40.5L70.1694 40.5L70.2057 40.5L70.242 40.5L70.2784 40.5L70.3148 40.5L70.3512 40.5L70.3876 40.5L70.4241 40.5L70.4606 40.5L70.4971 40.5L70.5336 40.5L70.5702 40.5L70.6068 40.5L70.6434 40.5L70.6801 40.5L70.7167 40.5L70.7534 40.5L70.7902 40.5L70.8269 40.5L70.8637 40.5L70.9005 40.5L70.9373 40.5L70.9742 40.5L71.0111 40.5L71.048 40.5L71.085 40.5L71.1219 40.5L71.159 40.5L71.196 40.5L71.233 40.5L71.2701 40.5L71.3073 40.5L71.3444 40.5L71.3816 40.5L71.4188 40.5L71.456 40.5L71.4933 40.5L71.5306 40.5L71.5679 40.5L71.6053 40.5L71.6427 40.5L71.6801 40.5L71.7176 40.5L71.7551 40.5L71.7926 40.5L71.8301 40.5L71.8677 40.5L71.9053 40.5L71.943 40.5L71.9806 40.5L72.0183 40.5L72.0561 40.5L72.0939 40.5L72.1317 40.5L72.1695 40.5L72.2074 40.5L72.2453 40.5L72.2832 40.5L72.3212 40.5L72.3592 40.5L72.3972 40.5L72.4353 40.5L72.4734 40.5L72.5116 40.5L72.5497 40.5L72.588 40.5L72.6262 40.5L72.6645 40.5L72.7028 40.5L72.7412 40.5L72.7795 40.5L72.818 40.5L72.8564 40.5L72.8949 40.5L72.9335 40.5L72.972 40.5L73.0106 40.5L73.0493 40.5L73.0879 40.5L73.1267 40.5L73.1654 40.5L73.2042 40.5L73.243 40.5L73.2819 40.5L73.3208 40.5L73.3597 40.5L73.3987 40.5L73.4377 40.5L73.4768 40.5L73.5159 40.5L73.555 40.5L73.5942 40.5L73.6334 40.5L73.6727 40.5L73.712 40.5L73.7513 40.5L73.7907 40.5L73.8301 40.5L73.8695 40.5L73.909 40.5L73.9485 40.5L73.9881 40.5L74.0277 40.5L74.0674 40.5L74.1071 40.5L74.1468 40.5L74.1866 40.5C82.0366 40.5 88.4067 46.8637 88.4067 54.7143C88.4067 60.6711 83.5778 65.5 77.621 65.5L52.1925 65.5Z" stroke="url(#paint5_linear_245_12983)" stroke-opacity="0.76"/>
</g>
<circle opacity="0.42" cx="39.4067" cy="12" r="3" fill="url(#paint6_linear_245_12983)"/>
<circle opacity="0.42" cx="83.4067" cy="75" r="3" fill="url(#paint7_linear_245_12983)"/>
<circle opacity="0.42" cx="28.9062" cy="61.5" r="1.5" fill="url(#paint8_linear_245_12983)"/>
<circle opacity="0.42" cx="91.9067" cy="13.5" r="1.5" fill="url(#paint9_linear_245_12983)"/>
<circle opacity="0.42" cx="97.4067" cy="43" r="1" fill="url(#paint10_linear_245_12983)"/>
<defs>
<filter id="filter0_f_245_12983" x="0.40625" y="32" width="131" height="75" filterUnits="userSpaceOnUse" color-interpolation-filters="sRGB">
<feFlood flood-opacity="0" result="BackgroundImageFix"/>
<feBlend mode="normal" in="SourceGraphic" in2="BackgroundImageFix" result="shape"/>
<feGaussianBlur stdDeviation="15" result="effect1_foregroundBlur_245_12983"/>
</filter>
<filter id="filter1_bd_245_12983" x="43.9593" y="2.31233" width="42.1258" height="42.9386" filterUnits="userSpaceOnUse" color-interpolation-filters="sRGB">
<feFlood flood-opacity="0" result="BackgroundImageFix"/>
<feGaussianBlur in="BackgroundImageFix" stdDeviation="3.34383"/>
<feComposite in2="SourceAlpha" operator="in" result="effect1_backgroundBlur_245_12983"/>
<feColorMatrix in="SourceAlpha" type="matrix" values="0 0 0 0 0 0 0 0 0 0 0 0 0 0 0 0 0 0 127 0" result="hardAlpha"/>
<feOffset dy="3"/>
<feGaussianBlur stdDeviation="2.25"/>
<feComposite in2="hardAlpha" operator="out"/>
<feColorMatrix type="matrix" values="0 0 0 0 0.483333 0 0 0 0 0.214815 0 0 0 0 0.437822 0 0 0 0.21 0"/>
<feBlend mode="normal" in2="effect1_backgroundBlur_245_12983" result="effect2_dropShadow_245_12983"/>
<feBlend mode="normal" in="SourceGraphic" in2="effect2_dropShadow_245_12983" result="shape"/>
</filter>
<filter id="filter2_b_245_12983" x="33.5803" y="32.6735" width="62.6529" height="40.6529" filterUnits="userSpaceOnUse" color-interpolation-filters="sRGB">
<feFlood flood-opacity="0" result="BackgroundImageFix"/>
<feGaussianBlur in="BackgroundImageFix" stdDeviation="3.66324"/>
<feComposite in2="SourceAlpha" operator="in" result="effect1_backgroundBlur_245_12983"/>
<feBlend mode="normal" in="SourceGraphic" in2="effect1_backgroundBlur_245_12983" result="shape"/>
</filter>
<linearGradient id="paint0_linear_245_12983" x1="19.0869" y1="70.8333" x2="64.6796" y2="21.4511" gradientUnits="userSpaceOnUse">
<stop stop-color="#F6DEC6"/>
<stop offset="0.47" stop-color="#E872D4"/>
<stop offset="0.656667" stop-color="#C190D9"/>
<stop offset="0.881578" stop-color="#A2DCFE"/>
</linearGradient>
<linearGradient id="paint1_linear_245_12983" x1="32.8621" y1="52.8277" x2="77.2825" y2="7.48563" gradientUnits="userSpaceOnUse">
<stop offset="0.071462" stop-color="#F6DEC6"/>
<stop offset="0.445491" stop-color="#E872D4"/>
<stop offset="0.673082" stop-color="#C190D9"/>
<stop offset="0.881578" stop-color="#A2DCFE"/>
</linearGradient>
<linearGradient id="paint2_linear_245_12983" x1="47.3822" y1="25.7532" x2="82.855" y2="17.636" gradientUnits="userSpaceOnUse">
<stop stop-color="#F6DEC6"/>
<stop offset="0.47" stop-color="#E872D4"/>
<stop offset="0.656667" stop-color="#C190D9"/>
<stop offset="0.881578" stop-color="#A2DCFE"/>
</linearGradient>
<linearGradient id="paint3_linear_245_12983" x1="46.4064" y1="-1" x2="65.0223" y2="36.7507" gradientUnits="userSpaceOnUse">
<stop stop-color="white"/>
<stop offset="1" stop-color="white" stop-opacity="0"/>
</linearGradient>
<linearGradient id="paint4_linear_245_12983" x1="34.5731" y1="50.8667" x2="88.4096" y2="74.4786" gradientUnits="userSpaceOnUse">
<stop stop-color="#F6DEC6"/>
<stop offset="0.47" stop-color="#E872D4"/>
<stop offset="0.656667" stop-color="#C190D9"/>
<stop offset="0.881578" stop-color="#A2DCFE"/>
</linearGradient>
<linearGradient id="paint5_linear_245_12983" x1="51.4642" y1="24.7546" x2="96.0947" y2="47.4771" gradientUnits="userSpaceOnUse">
<stop stop-color="white"/>
<stop offset="0.8" stop-color="white" stop-opacity="0"/>
</linearGradient>
<linearGradient id="paint6_linear_245_12983" x1="35.4502" y1="12.5333" x2="43.4065" y2="10.7127" gradientUnits="userSpaceOnUse">
<stop stop-color="#F6DEC6"/>
<stop offset="0.47" stop-color="#E872D4"/>
<stop offset="0.656667" stop-color="#C190D9"/>
<stop offset="0.881578" stop-color="#A2DCFE"/>
</linearGradient>
<linearGradient id="paint7_linear_245_12983" x1="79.4502" y1="75.5333" x2="87.4065" y2="73.7127" gradientUnits="userSpaceOnUse">
<stop stop-color="#F6DEC6"/>
<stop offset="0.47" stop-color="#E872D4"/>
<stop offset="0.656667" stop-color="#C190D9"/>
<stop offset="0.881578" stop-color="#A2DCFE"/>
</linearGradient>
<linearGradient id="paint8_linear_245_12983" x1="26.928" y1="61.7667" x2="30.9061" y2="60.8564" gradientUnits="userSpaceOnUse">
<stop stop-color="#F6DEC6"/>
<stop offset="0.47" stop-color="#E872D4"/>
<stop offset="0.656667" stop-color="#C190D9"/>
<stop offset="0.881578" stop-color="#A2DCFE"/>
</linearGradient>
<linearGradient id="paint9_linear_245_12983" x1="89.9285" y1="13.7667" x2="93.9066" y2="12.8564" gradientUnits="userSpaceOnUse">
<stop stop-color="#F6DEC6"/>
<stop offset="0.47" stop-color="#E872D4"/>
<stop offset="0.656667" stop-color="#C190D9"/>
<stop offset="0.881578" stop-color="#A2DCFE"/>
</linearGradient>
<linearGradient id="paint10_linear_245_12983" x1="96.0879" y1="43.1778" x2="98.74" y2="42.5709" gradientUnits="userSpaceOnUse">
<stop stop-color="#F6DEC6"/>
<stop offset="0.47" stop-color="#E872D4"/>
<stop offset="0.656667" stop-color="#C190D9"/>
<stop offset="0.881578" stop-color="#A2DCFE"/>
</linearGradient>
</defs>
</svg>
