<svg width="19" height="18" viewBox="0 0 19 18" fill="none" xmlns="http://www.w3.org/2000/svg">
<g clip-path="url(#clip0_245_9793)">
<path d="M1.37687 6.87856L4.28612 3.96931C4.58407 3.68156 5.05886 3.68982 5.34661 3.98777C5.62734 4.27841 5.62734 4.7392 5.34661 5.02984L2.43736 7.93909C2.35091 8.02722 2.2754 8.12545 2.21236 8.23159C2.22361 8.23159 2.23261 8.22557 2.24386 8.22557L14.0069 8.24959C14.4211 8.24959 14.7569 8.58536 14.7569 8.99958C14.7569 9.41379 14.4211 9.74956 14.0069 9.74956L2.24836 9.72555C2.22738 9.72555 2.21011 9.71504 2.18986 9.71356C2.25638 9.84044 2.34075 9.95713 2.44035 10.0601L5.3496 12.9693C5.64755 13.2571 5.65581 13.7319 5.36806 14.0298C5.08031 14.3278 4.60552 14.336 4.30757 14.0483C4.30131 14.0422 4.29516 14.0361 4.28911 14.0298L1.37986 11.1206C0.208702 9.94904 0.208702 8.05004 1.37986 6.87856H1.37687Z" fill="#E45757"/>
<path d="M13.2486 16.5H14.7486C15.9912 16.5 16.9986 15.4926 16.9986 14.25V3.75001C16.9986 2.50738 15.9912 1.50001 14.7486 1.50001H13.2486C12.8344 1.50001 12.4986 1.16423 12.4986 0.750023C12.4986 0.335813 12.8343 0 13.2486 0H14.7486C16.8186 0.00249609 18.4961 1.67998 18.4986 3.75001V14.25C18.4961 16.32 16.8186 17.9975 14.7486 18H13.2485C12.8343 18 12.4986 17.6642 12.4986 17.25C12.4986 16.8358 12.8343 16.5 13.2486 16.5Z" fill="#E45757"/>
</g>
<defs>
<clipPath id="clip0_245_9793">
<rect width="18" height="18" fill="white" transform="matrix(-1 0 0 1 18.5 0)"/>
</clipPath>
</defs>
</svg>
