<svg width="18" height="18" viewBox="0 0 18 18" fill="none" xmlns="http://www.w3.org/2000/svg">
<g clip-path="url(#clip0_294_545)">
<path d="M0.87686 6.87832L3.78611 3.96907C4.08406 3.68132 4.55884 3.68958 4.8466 3.98753C5.12732 4.27816 5.12732 4.73896 4.8466 5.02959L1.93735 7.93884C1.8509 8.02698 1.77538 8.12521 1.71235 8.23134C1.7236 8.23134 1.7326 8.22533 1.74385 8.22533L13.5068 8.24934C13.9211 8.24934 14.2568 8.58512 14.2568 8.99933C14.2568 9.41354 13.9211 9.74932 13.5068 9.74932L1.74835 9.72531C1.72736 9.72531 1.7101 9.7148 1.68985 9.71332C1.75636 9.8402 1.84074 9.95688 1.94034 10.0598L4.84959 12.9691C5.14753 13.2568 5.1558 13.7316 4.86804 14.0296C4.58029 14.3275 4.1055 14.3358 3.80755 14.048C3.8013 14.042 3.79515 14.0358 3.7891 14.0296L0.879848 11.1203C-0.291313 9.9488 -0.291313 8.0498 0.879848 6.87832H0.87686Z" fill="#0B1319"/>
<path d="M12.7485 16.5H14.2486C15.4912 16.5 16.4986 15.4926 16.4986 14.25V3.75001C16.4986 2.50738 15.4912 1.50001 14.2486 1.50001H12.7485C12.3343 1.50001 11.9986 1.16423 11.9986 0.750023C11.9986 0.335813 12.3343 0 12.7485 0H14.2486C16.3186 0.00249609 17.996 1.67998 17.9985 3.75001V14.25C17.996 16.32 16.3186 17.9975 14.2485 18H12.7485C12.3343 18 11.9985 17.6642 11.9985 17.25C11.9985 16.8358 12.3343 16.5 12.7485 16.5Z" fill="#0B1319"/>
</g>
<defs>
<clipPath id="clip0_294_545">
<rect width="18" height="18" fill="white" transform="matrix(-1 0 0 1 18 0)"/>
</clipPath>
</defs>
</svg>
