<svg width="76" height="76" viewBox="0 0 76 76" fill="none" xmlns="http://www.w3.org/2000/svg">
<rect width="76" height="76" rx="38" fill="url(#paint0_linear_245_6019)" fill-opacity="0.2"/>
<path d="M50.6118 24.1543H45.9595C43.9499 24.1543 42.7472 25.2708 42.7472 27.1365V31.4557C42.7472 33.3214 43.9499 34.4379 45.9595 34.4379H50.6118C52.6215 34.4379 53.8241 33.3214 53.8241 31.4557V27.1365C53.8241 25.2708 52.6215 24.1543 50.6118 24.1543ZM50.96 29.017C50.7701 29.1933 50.5169 29.2814 50.2637 29.2814C50.0105 29.2814 49.7573 29.1933 49.5674 29.017L49.2826 28.7525V32.0433C49.2826 32.5575 48.8395 32.9688 48.2857 32.9688C47.7318 32.9688 47.2888 32.5575 47.2888 32.0433V28.7525L47.0039 29.017C46.6241 29.3696 45.9912 29.3696 45.6114 29.017C45.2316 28.6644 45.2316 28.0768 45.6114 27.7242L47.5894 25.8878C47.6685 25.8144 47.7793 25.7556 47.8901 25.7115C47.9217 25.6968 47.9534 25.6968 47.985 25.6821C48.0641 25.6528 48.1433 25.6381 48.2382 25.6381C48.2698 25.6381 48.3015 25.6381 48.3332 25.6381C48.4439 25.6381 48.5389 25.6528 48.6496 25.6968C48.6655 25.6968 48.6655 25.6968 48.6813 25.6968C48.792 25.7409 48.887 25.7997 48.9661 25.8731C48.9819 25.8878 48.9819 25.8878 48.9978 25.8878L50.9758 27.7242C51.3556 28.0768 51.3556 28.6644 50.96 29.017Z" fill="url(#paint1_linear_245_6019)"/>
<path d="M22.1758 38.4191V45.7646C22.1758 49.1288 25.1033 51.8466 28.727 51.8466H47.2571C50.8808 51.8466 53.8241 49.1141 53.8241 45.7499V38.4191C53.8241 37.4349 52.9696 36.6415 51.9094 36.6415H24.0905C23.0303 36.6415 22.1758 37.4349 22.1758 38.4191ZM31.6703 46.9252H28.5055C27.8567 46.9252 27.3186 46.4257 27.3186 45.8233C27.3186 45.221 27.8567 44.7215 28.5055 44.7215H31.6703C32.3191 44.7215 32.8571 45.221 32.8571 45.8233C32.8571 46.4257 32.3191 46.9252 31.6703 46.9252ZM41.956 46.9252H35.6263C34.9775 46.9252 34.4395 46.4257 34.4395 45.8233C34.4395 45.221 34.9775 44.7215 35.6263 44.7215H41.956C42.6048 44.7215 43.1428 45.221 43.1428 45.8233C43.1428 46.4257 42.6048 46.9252 41.956 46.9252Z" fill="url(#paint2_linear_245_6019)"/>
<path d="M40.3736 28.3536V32.658C40.3736 33.6423 39.5191 34.4356 38.4589 34.4356H24.0905C23.0145 34.4356 22.1758 33.6129 22.1758 32.6286C22.1916 30.9686 22.9037 29.4554 24.0905 28.3536C25.2773 27.2518 26.923 26.576 28.727 26.576H38.4589C39.5191 26.576 40.3736 27.3693 40.3736 28.3536Z" fill="url(#paint3_linear_245_6019)"/>
<defs>
<linearGradient id="paint0_linear_245_6019" x1="-12.1165" y1="44.7556" x2="88.6634" y2="21.6943" gradientUnits="userSpaceOnUse">
<stop stop-color="#F6DEC6"/>
<stop offset="0.47" stop-color="#E872D4"/>
<stop offset="0.656667" stop-color="#C190D9"/>
<stop offset="0.881578" stop-color="#A2DCFE"/>
</linearGradient>
<linearGradient id="paint1_linear_245_6019" x1="17.1302" y1="40.462" x2="58.4679" y2="29.6515" gradientUnits="userSpaceOnUse">
<stop stop-color="#F6DEC6"/>
<stop offset="0.47" stop-color="#E872D4"/>
<stop offset="0.656667" stop-color="#C190D9"/>
<stop offset="0.881578" stop-color="#A2DCFE"/>
</linearGradient>
<linearGradient id="paint2_linear_245_6019" x1="17.1302" y1="40.462" x2="58.4679" y2="29.6515" gradientUnits="userSpaceOnUse">
<stop stop-color="#F6DEC6"/>
<stop offset="0.47" stop-color="#E872D4"/>
<stop offset="0.656667" stop-color="#C190D9"/>
<stop offset="0.881578" stop-color="#A2DCFE"/>
</linearGradient>
<linearGradient id="paint3_linear_245_6019" x1="17.1302" y1="40.462" x2="58.4679" y2="29.6515" gradientUnits="userSpaceOnUse">
<stop stop-color="#F6DEC6"/>
<stop offset="0.47" stop-color="#E872D4"/>
<stop offset="0.656667" stop-color="#C190D9"/>
<stop offset="0.881578" stop-color="#A2DCFE"/>
</linearGradient>
</defs>
</svg>
