<svg width="18" height="19" viewBox="0 0 18 19" fill="none" xmlns="http://www.w3.org/2000/svg">
<path d="M5.56836 16.2496C5.8591 16.9181 6.33878 17.4872 6.94847 17.8869C7.55817 18.2866 8.27133 18.4995 9.00036 18.4995C9.72939 18.4995 10.4426 18.2866 11.0522 17.8869C11.6619 17.4872 12.1416 16.9181 12.4324 16.2496H5.56836Z" fill="#232B31" stroke="url(#paint0_linear_29_4705)"/>
<path d="M16.7939 9.91133L15.4919 5.61908C15.0749 4.11784 14.1684 2.79891 12.9163 1.87171C11.6641 0.944503 10.1381 0.462169 8.58054 0.50129C7.02297 0.54041 5.5231 1.09874 4.31908 2.08764C3.11507 3.07653 2.27591 4.4393 1.93486 5.95958L0.923856 10.1123C0.789481 10.6641 0.782201 11.2393 0.902564 11.7943C1.02293 12.3494 1.26779 12.8698 1.61867 13.3164C1.96956 13.763 2.41729 14.124 2.92809 14.3723C3.43889 14.6206 3.99942 14.7496 4.56736 14.7496H13.2051C13.7907 14.7496 14.3681 14.6125 14.8911 14.3493C15.4142 14.086 15.8683 13.7039 16.2171 13.2336C16.566 12.7633 16.7998 12.2179 16.9 11.641C17.0001 11.064 16.9638 10.4717 16.7939 9.91133Z" fill="#232B31" stroke="url(#paint1_linear_29_4705)"/>
<defs>
<linearGradient id="paint0_linear_29_4705" x1="9.00036" y1="16.2496" x2="9.00036" y2="18.4995" gradientUnits="userSpaceOnUse">
<stop stop-color="#CDE8E5"/>
<stop offset="1" stop-color="#124AE8" stop-opacity="0.7"/>
</linearGradient>
<linearGradient id="paint1_linear_29_4705" x1="8.88631" y1="0.499084" x2="8.88631" y2="14.7496" gradientUnits="userSpaceOnUse">
<stop stop-color="#CDE8E5"/>
<stop offset="1" stop-color="#124AE8" stop-opacity="0.7"/>
</linearGradient>
</defs>
</svg>
