<svg width="18" height="19" viewBox="0 0 18 19" fill="none" xmlns="http://www.w3.org/2000/svg">
<path d="M5.56812 16.2495C5.85886 16.9181 6.33854 17.4871 6.94823 17.8868C7.55792 18.2865 8.27108 18.4995 9.00012 18.4995C9.72915 18.4995 10.4423 18.2865 11.052 17.8868C11.6617 17.4871 12.1414 16.9181 12.4321 16.2495H5.56812Z" fill="#232B31" stroke="url(#paint0_linear_2_4875)"/>
<path d="M16.7941 9.91127L15.4921 5.61902C15.0752 4.11778 14.1686 2.79885 12.9165 1.87165C11.6644 0.944442 10.1384 0.462108 8.58079 0.501229C7.02321 0.540349 5.52334 1.09868 4.31933 2.08757C3.11531 3.07647 2.27616 4.43924 1.9351 5.95952L0.9241 10.1123C0.789725 10.6641 0.782445 11.2392 0.902808 11.7943C1.02317 12.3493 1.26803 12.8697 1.61892 13.3163C1.9698 13.7629 2.41754 14.124 2.92834 14.3722C3.43914 14.6205 3.99966 14.7495 4.5676 14.7495H13.2053C13.7909 14.7495 14.3683 14.6124 14.8914 14.3492C15.4144 14.0859 15.8685 13.7039 16.2174 13.2336C16.5662 12.7633 16.8001 12.2178 16.9002 11.6409C17.0004 11.064 16.964 10.4716 16.7941 9.91127Z" fill="#232B31" stroke="url(#paint1_linear_2_4875)"/>
<defs>
<linearGradient id="paint0_linear_2_4875" x1="4.47381" y1="17.5745" x2="10.9139" y2="13.0787" gradientUnits="userSpaceOnUse">
<stop stop-color="#F6DEC6"/>
<stop offset="0.47" stop-color="#E872D4"/>
<stop offset="0.656667" stop-color="#C190D9"/>
<stop offset="0.881578" stop-color="#A2DCFE"/>
</linearGradient>
<linearGradient id="paint1_linear_2_4875" x1="-1.75518" y1="8.89098" x2="19.3479" y2="3.42247" gradientUnits="userSpaceOnUse">
<stop stop-color="#F6DEC6"/>
<stop offset="0.47" stop-color="#E872D4"/>
<stop offset="0.656667" stop-color="#C190D9"/>
<stop offset="0.881578" stop-color="#A2DCFE"/>
</linearGradient>
</defs>
</svg>
