<svg width="18" height="19" viewBox="0 0 18 19" fill="none" xmlns="http://www.w3.org/2000/svg">
<path d="M9 17.5C7.41775 17.5 5.87103 17.0308 4.55544 16.1518C3.23985 15.2727 2.21447 14.0233 1.60897 12.5615C1.00347 11.0997 0.845039 9.49113 1.15372 7.93928C1.4624 6.38743 2.22433 4.96197 3.34315 3.84315C4.46197 2.72433 5.88743 1.9624 7.43928 1.65372C8.99113 1.34504 10.5997 1.50347 12.0615 2.10897C13.5233 2.71447 14.7727 3.73985 15.6518 5.05544C16.5308 6.37103 17 7.91775 17 9.5C16.9977 11.621 16.1541 13.6545 14.6543 15.1543C13.1545 16.6541 11.121 17.4977 9 17.5ZM9 4.83334C8.80222 4.83334 8.60888 4.89199 8.44443 5.00187C8.27998 5.11175 8.15181 5.26793 8.07612 5.45065C8.00043 5.63338 7.98063 5.83444 8.01922 6.02843C8.0578 6.22241 8.15304 6.40059 8.29289 6.54044C8.43275 6.68029 8.61093 6.77554 8.80491 6.81412C8.99889 6.85271 9.19996 6.8329 9.38268 6.75722C9.56541 6.68153 9.72159 6.55336 9.83147 6.38891C9.94135 6.22446 10 6.03112 10 5.83334C10 5.56812 9.89464 5.31377 9.70711 5.12623C9.51957 4.93869 9.26522 4.83334 9 4.83334ZM9.66667 8.16667H9C8.64638 8.16667 8.30724 8.30715 8.05719 8.55719C7.80714 8.80724 7.66667 9.14638 7.66667 9.5V13.5C7.66667 13.6768 7.73691 13.8464 7.86193 13.9714C7.98695 14.0964 8.15652 14.1667 8.33333 14.1667C8.51015 14.1667 8.67972 14.0964 8.80474 13.9714C8.92976 13.8464 9 13.6768 9 13.5V9.5H9.66667C9.84348 9.5 10.013 9.42976 10.1381 9.30474C10.2631 9.17972 10.3333 9.01015 10.3333 8.83334C10.3333 8.65652 10.2631 8.48696 10.1381 8.36193C10.013 8.23691 9.84348 8.16667 9.66667 8.16667Z" fill="#FFB442"/>
</svg>
