<svg width="16" height="16" viewBox="0 0 16 16" fill="none" xmlns="http://www.w3.org/2000/svg">
<path d="M2.33242 1H4.42308C5.32619 1 5.86664 1.56446 5.86664 2.50769V4.69125C5.86664 5.63448 5.32619 6.19894 4.42308 6.19894H2.33242C1.42931 6.19894 0.888863 5.63448 0.888863 4.69125V2.50769C0.888863 1.56446 1.42931 1 2.33242 1ZM2.17597 3.45836C2.26131 3.54748 2.37508 3.59204 2.48886 3.59204C2.60264 3.59204 2.71642 3.54748 2.80175 3.45836L2.92975 3.32467V4.98833C2.92975 5.24828 3.12886 5.45623 3.37775 5.45623C3.62664 5.45623 3.82575 5.24828 3.82575 4.98833V3.32467L3.95375 3.45836C4.12442 3.63661 4.40886 3.63661 4.57953 3.45836C4.7502 3.28011 4.7502 2.98302 4.57953 2.80477L3.69064 1.87639C3.65508 1.83926 3.60531 1.80955 3.55553 1.78727C3.54131 1.77984 3.52709 1.77984 3.51286 1.77241C3.47731 1.75756 3.44175 1.75013 3.39909 1.75013C3.38486 1.75013 3.37064 1.75013 3.35642 1.75013C3.30664 1.75013 3.26397 1.75756 3.2142 1.77984C3.20709 1.77984 3.20708 1.77984 3.19997 1.77984C3.1502 1.80212 3.10753 1.83183 3.07197 1.86897C3.06486 1.87639 3.06486 1.87639 3.05775 1.87639L2.16886 2.80477C1.9982 2.98302 1.9982 3.28011 2.17597 3.45836Z" fill="#4E5459"/>
<path d="M15.1111 8.21167V11.9252C15.1111 13.626 13.7955 15 12.1671 15H3.83997C2.21153 15 0.888863 13.6186 0.888863 11.9178V8.21167C0.888863 7.71406 1.27286 7.313 1.74931 7.313H14.2506C14.7271 7.313 15.1111 7.71406 15.1111 8.21167ZM10.8444 12.5119H12.2666C12.5582 12.5119 12.8 12.2594 12.8 11.9549C12.8 11.6504 12.5582 11.3979 12.2666 11.3979H10.8444C10.5529 11.3979 10.3111 11.6504 10.3111 11.9549C10.3111 12.2594 10.5529 12.5119 10.8444 12.5119ZM6.2222 12.5119H9.06664C9.3582 12.5119 9.59997 12.2594 9.59997 11.9549C9.59997 11.6504 9.3582 11.3979 9.06664 11.3979H6.2222C5.93064 11.3979 5.68886 11.6504 5.68886 11.9549C5.68886 12.2594 5.93064 12.5119 6.2222 12.5119Z" fill="#4E5459"/>
<path d="M6.93331 3.12298V5.29911C6.93331 5.79672 7.31731 6.19778 7.79375 6.19778H14.2506C14.7342 6.19778 15.1111 5.78187 15.1111 5.28425C15.104 4.445 14.784 3.68001 14.2506 3.12298C13.7173 2.56595 12.9778 2.22431 12.1671 2.22431H7.79375C7.31731 2.22431 6.93331 2.62537 6.93331 3.12298Z" fill="#4E5459"/>
</svg>
