<svg width="132" height="107" viewBox="0 0 132 107" fill="none" xmlns="http://www.w3.org/2000/svg">
<g opacity="0.5" filter="url(#filter0_f_245_11689)">
<ellipse cx="65.9065" cy="69.5" rx="35.5" ry="7.5" fill="url(#paint0_linear_245_11689)"/>
</g>
<circle opacity="0.42" cx="35.5" cy="16" r="3" fill="url(#paint1_linear_245_11689)"/>
<circle opacity="0.42" cx="83" cy="72" r="3" fill="url(#paint2_linear_245_11689)"/>
<circle opacity="0.42" cx="28.9065" cy="61.5" r="1.5" fill="url(#paint3_linear_245_11689)"/>
<circle opacity="0.42" cx="84.5" cy="12.5" r="1.5" fill="url(#paint4_linear_245_11689)"/>
<circle opacity="0.42" cx="96.4065" cy="33" r="1" fill="url(#paint5_linear_245_11689)"/>
<path d="M77.2431 49.8286C80.3006 46.3359 83.1787 41.3964 84.703 34.489C86.1921 27.7413 82.2663 21.225 76.3993 17.5744C69.9303 13.5493 61.7362 13.5493 55.2672 17.5744C49.4002 21.225 45.4744 27.7413 46.9635 34.489C48.4878 41.3964 51.3659 46.3359 54.4234 49.8286C60.4637 56.7286 71.2028 56.7286 77.2431 49.8286Z" fill="url(#paint6_linear_245_11689)"/>
<g filter="url(#filter1_b_245_11689)">
<rect x="42.5" y="23" width="46" height="46" rx="23" fill="#6AE092" fill-opacity="0.6"/>
<rect x="43" y="23.5" width="45" height="45" rx="22.5" stroke="url(#paint7_linear_245_11689)"/>
</g>
<path d="M64.2757 48.9245C64.3216 48.9704 64.3838 48.9962 64.4488 48.9962C64.5137 48.9962 64.5759 48.9704 64.6218 48.9245L76.805 36.7413C77.9111 35.6352 79.7043 35.6352 80.8103 36.7413C81.9163 37.8473 81.9163 39.6405 80.8103 40.7465L66.4514 55.1054C65.9203 55.6366 65.1999 55.935 64.4488 55.935C63.6976 55.935 62.9772 55.6366 62.4461 55.1054L54.241 46.9004C53.135 45.7943 53.135 44.0011 54.241 42.8951C55.347 41.7891 57.1403 41.7891 58.2463 42.8951L64.2757 48.9245Z" fill="url(#paint8_linear_245_11689)" fill-opacity="0.9" stroke="url(#paint9_linear_245_11689)" stroke-width="0.489516" stroke-linecap="round" stroke-linejoin="round"/>
<defs>
<filter id="filter0_f_245_11689" x="0.406494" y="32" width="131" height="75" filterUnits="userSpaceOnUse" color-interpolation-filters="sRGB">
<feFlood flood-opacity="0" result="BackgroundImageFix"/>
<feBlend mode="normal" in="SourceGraphic" in2="BackgroundImageFix" result="shape"/>
<feGaussianBlur stdDeviation="15" result="effect1_foregroundBlur_245_11689"/>
</filter>
<filter id="filter1_b_245_11689" x="28.5" y="9" width="74" height="74" filterUnits="userSpaceOnUse" color-interpolation-filters="sRGB">
<feFlood flood-opacity="0" result="BackgroundImageFix"/>
<feGaussianBlur in="BackgroundImageFix" stdDeviation="7"/>
<feComposite in2="SourceAlpha" operator="in" result="effect1_backgroundBlur_245_11689"/>
<feBlend mode="normal" in="SourceGraphic" in2="effect1_backgroundBlur_245_11689" result="shape"/>
</filter>
<linearGradient id="paint0_linear_245_11689" x1="46.1971" y1="67.3301" x2="52.8107" y2="94.8169" gradientUnits="userSpaceOnUse">
<stop stop-color="#75EDA1"/>
<stop offset="1" stop-color="#349256"/>
</linearGradient>
<linearGradient id="paint1_linear_245_11689" x1="33.8344" y1="15.132" x2="39.6012" y2="20.1956" gradientUnits="userSpaceOnUse">
<stop stop-color="#75EDA1"/>
<stop offset="1" stop-color="#349256"/>
</linearGradient>
<linearGradient id="paint2_linear_245_11689" x1="81.3344" y1="71.132" x2="87.1012" y2="76.1956" gradientUnits="userSpaceOnUse">
<stop stop-color="#75EDA1"/>
<stop offset="1" stop-color="#349256"/>
</linearGradient>
<linearGradient id="paint3_linear_245_11689" x1="28.0737" y1="61.066" x2="30.9571" y2="63.5978" gradientUnits="userSpaceOnUse">
<stop stop-color="#75EDA1"/>
<stop offset="1" stop-color="#349256"/>
</linearGradient>
<linearGradient id="paint4_linear_245_11689" x1="83.6672" y1="12.066" x2="86.5506" y2="14.5978" gradientUnits="userSpaceOnUse">
<stop stop-color="#75EDA1"/>
<stop offset="1" stop-color="#349256"/>
</linearGradient>
<linearGradient id="paint5_linear_245_11689" x1="95.8513" y1="32.7107" x2="97.7736" y2="34.3985" gradientUnits="userSpaceOnUse">
<stop stop-color="#75EDA1"/>
<stop offset="1" stop-color="#349256"/>
</linearGradient>
<linearGradient id="paint6_linear_245_11689" x1="54.7294" y1="27.5825" x2="98.1947" y2="60.2951" gradientUnits="userSpaceOnUse">
<stop stop-color="#75EDA1"/>
<stop offset="1" stop-color="#349256"/>
</linearGradient>
<linearGradient id="paint7_linear_245_11689" x1="42.5" y1="6" x2="70.5" y2="64.6667" gradientUnits="userSpaceOnUse">
<stop stop-color="white"/>
<stop offset="1" stop-color="white" stop-opacity="0"/>
</linearGradient>
<linearGradient id="paint8_linear_245_11689" x1="57.6546" y1="43.488" x2="102.527" y2="48.7911" gradientUnits="userSpaceOnUse">
<stop stop-color="white"/>
<stop offset="1" stop-color="white" stop-opacity="0"/>
</linearGradient>
<linearGradient id="paint9_linear_245_11689" x1="53.9832" y1="38.5928" x2="72.3401" y2="44.7118" gradientUnits="userSpaceOnUse">
<stop stop-color="white"/>
<stop offset="1" stop-color="white" stop-opacity="0"/>
</linearGradient>
</defs>
</svg>
