<svg width="60" height="61" viewBox="0 0 60 61" fill="none" xmlns="http://www.w3.org/2000/svg">
<rect y="0.5" width="60" height="60" rx="29.9" fill="url(#paint0_linear_245_7076)" fill-opacity="0.26"/>
<path d="M38.433 20.083H35.3074C33.9573 20.083 33.1493 20.9269 33.1493 22.337V25.6014C33.1493 27.0116 33.9573 27.8554 35.3074 27.8554H38.433C39.7831 27.8554 40.5911 27.0116 40.5911 25.6014V22.337C40.5911 20.9269 39.7831 20.083 38.433 20.083ZM38.6668 23.7582C38.5393 23.8915 38.3692 23.9581 38.1991 23.9581C38.029 23.9581 37.8589 23.8915 37.7313 23.7582L37.5399 23.5584V26.0456C37.5399 26.4342 37.2423 26.7451 36.8702 26.7451C36.4981 26.7451 36.2004 26.4342 36.2004 26.0456V23.5584L36.0091 23.7582C35.7539 24.0247 35.3287 24.0247 35.0735 23.7582C34.8184 23.4918 34.8184 23.0476 35.0735 22.7811L36.4024 21.3932C36.4556 21.3377 36.53 21.2933 36.6044 21.26C36.6257 21.2489 36.6469 21.2489 36.6682 21.2378C36.7214 21.2156 36.7745 21.2045 36.8383 21.2045C36.8596 21.2045 36.8808 21.2045 36.9021 21.2045C36.9765 21.2045 37.0403 21.2156 37.1147 21.2489C37.1253 21.2489 37.1253 21.2489 37.136 21.2489C37.2104 21.2822 37.2742 21.3266 37.3273 21.3821C37.338 21.3932 37.338 21.3932 37.3486 21.3932L38.6775 22.7811C38.9326 23.0476 38.9326 23.4918 38.6668 23.7582Z" fill="url(#paint1_linear_245_7076)"/>
<path d="M19.3289 30.8645V36.4162C19.3289 38.9589 21.2956 41.013 23.7301 41.013H36.1792C38.6137 41.013 40.5911 38.9478 40.5911 36.4051V30.8645C40.5911 30.1205 40.017 29.5209 39.3047 29.5209H20.6152C19.9029 29.5209 19.3289 30.1205 19.3289 30.8645ZM25.7075 37.2934H23.5813C23.1454 37.2934 22.784 36.9158 22.784 36.4606C22.784 36.0054 23.1454 35.6278 23.5813 35.6278H25.7075C26.1434 35.6278 26.5049 36.0054 26.5049 36.4606C26.5049 36.9158 26.1434 37.2934 25.7075 37.2934ZM32.6177 37.2934H28.3653C27.9294 37.2934 27.568 36.9158 27.568 36.4606C27.568 36.0054 27.9294 35.6278 28.3653 35.6278H32.6177C33.0536 35.6278 33.4151 36.0054 33.4151 36.4606C33.4151 36.9158 33.0536 37.2934 32.6177 37.2934Z" fill="url(#paint2_linear_245_7076)"/>
<path d="M31.5546 23.2569V26.5102C31.5546 27.2541 30.9806 27.8537 30.2683 27.8537H20.6152C19.8923 27.8537 19.3289 27.2319 19.3289 26.488C19.3395 25.2333 19.8179 24.0896 20.6152 23.2569C21.4126 22.4241 22.5182 21.9133 23.7301 21.9133H30.2683C30.9806 21.9133 31.5546 22.5129 31.5546 23.2569Z" fill="url(#paint3_linear_245_7076)"/>
<defs>
<linearGradient id="paint0_linear_245_7076" x1="-9.56562" y1="35.8333" x2="69.9974" y2="17.6271" gradientUnits="userSpaceOnUse">
<stop stop-color="#F6DEC6"/>
<stop offset="0.47" stop-color="#E872D4"/>
<stop offset="0.656667" stop-color="#C190D9"/>
<stop offset="0.881578" stop-color="#A2DCFE"/>
</linearGradient>
<linearGradient id="paint1_linear_245_7076" x1="15.9391" y1="32.4085" x2="44.0891" y2="25.8647" gradientUnits="userSpaceOnUse">
<stop stop-color="#F6DEC6"/>
<stop offset="0.47" stop-color="#E872D4"/>
<stop offset="0.656667" stop-color="#C190D9"/>
<stop offset="0.881578" stop-color="#A2DCFE"/>
</linearGradient>
<linearGradient id="paint2_linear_245_7076" x1="15.9391" y1="32.4085" x2="44.0891" y2="25.8647" gradientUnits="userSpaceOnUse">
<stop stop-color="#F6DEC6"/>
<stop offset="0.47" stop-color="#E872D4"/>
<stop offset="0.656667" stop-color="#C190D9"/>
<stop offset="0.881578" stop-color="#A2DCFE"/>
</linearGradient>
<linearGradient id="paint3_linear_245_7076" x1="15.9391" y1="32.4085" x2="44.0891" y2="25.8647" gradientUnits="userSpaceOnUse">
<stop stop-color="#F6DEC6"/>
<stop offset="0.47" stop-color="#E872D4"/>
<stop offset="0.656667" stop-color="#C190D9"/>
<stop offset="0.881578" stop-color="#A2DCFE"/>
</linearGradient>
</defs>
</svg>
