<svg width="16" height="14" viewBox="0 0 16 14" fill="none" xmlns="http://www.w3.org/2000/svg">
<path d="M14.376 0H12.024C11.008 0 10.4 0.564456 10.4 1.50769V3.69125C10.4 4.63448 11.008 5.19894 12.024 5.19894H14.376C15.392 5.19894 16 4.63448 16 3.69125V1.50769C16 0.564456 15.392 0 14.376 0ZM14.552 2.45836C14.456 2.54748 14.328 2.59204 14.2 2.59204C14.072 2.59204 13.944 2.54748 13.848 2.45836L13.704 2.32467V3.98833C13.704 4.24828 13.48 4.45623 13.2 4.45623C12.92 4.45623 12.696 4.24828 12.696 3.98833V2.32467L12.552 2.45836C12.36 2.63661 12.04 2.63661 11.848 2.45836C11.656 2.28011 11.656 1.98302 11.848 1.80477L12.848 0.876393C12.888 0.839257 12.944 0.809549 13 0.787268C13.016 0.779841 13.032 0.779841 13.048 0.772414C13.088 0.75756 13.128 0.750133 13.176 0.750133C13.192 0.750133 13.208 0.750133 13.224 0.750133C13.28 0.750133 13.328 0.75756 13.384 0.779841C13.392 0.779841 13.392 0.779841 13.4 0.779841C13.456 0.802122 13.504 0.83183 13.544 0.868966C13.552 0.876393 13.552 0.876393 13.56 0.876393L14.56 1.80477C14.752 1.98302 14.752 2.28011 14.552 2.45836Z" fill="#E45757"/>
<path d="M0 7.21167V10.9252C0 12.626 1.48 14 3.312 14H12.68C14.512 14 16 12.6186 16 10.9178V7.21167C16 6.71406 15.568 6.313 15.032 6.313H0.968C0.432 6.313 0 6.71406 0 7.21167ZM4.8 11.5119H3.2C2.872 11.5119 2.6 11.2594 2.6 10.9549C2.6 10.6504 2.872 10.3979 3.2 10.3979H4.8C5.128 10.3979 5.4 10.6504 5.4 10.9549C5.4 11.2594 5.128 11.5119 4.8 11.5119ZM10 11.5119H6.8C6.472 11.5119 6.2 11.2594 6.2 10.9549C6.2 10.6504 6.472 10.3979 6.8 10.3979H10C10.328 10.3979 10.6 10.6504 10.6 10.9549C10.6 11.2594 10.328 11.5119 10 11.5119Z" fill="#E45757"/>
<path d="M9.2 2.12298V4.29911C9.2 4.79672 8.768 5.19778 8.232 5.19778H0.968C0.424 5.19778 0 4.78187 0 4.28425C0.008 3.445 0.368 2.68001 0.968 2.12298C1.568 1.56595 2.4 1.22431 3.312 1.22431H8.232C8.768 1.22431 9.2 1.62537 9.2 2.12298Z" fill="#E45757"/>
</svg>
