<svg width="18" height="18" viewBox="0 0 18 18" fill="none" xmlns="http://www.w3.org/2000/svg">
<g clip-path="url(#clip0_245_7323)">
<path d="M14.035 9.00011H10.5002C9.6718 9.00011 9.00021 8.32852 9.00021 7.5001V3.95561C9.00228 3.25635 8.67909 2.59583 8.1257 2.16837C7.60131 1.7531 6.91372 1.6051 6.26495 1.76787C1.8553 2.86249 -0.83208 7.32463 0.262581 11.7343C1.0338 14.8411 3.53721 17.2185 6.67972 17.8284C10.9727 18.6501 15.1614 15.981 16.2302 11.7429C16.3936 11.0932 16.2459 10.4046 15.8305 9.87912C15.3981 9.32671 14.7365 9.00278 14.035 9.00011Z" fill="#232B31"/>
<path d="M17.7381 5.58411C17.5669 4.94771 17.3119 4.33687 16.9798 3.76762C15.981 2.05418 14.3495 0.801313 12.4363 0.278609C12.3103 0.244613 12.0283 0.224609 12.0283 0.224609C11.9276 0.224645 11.4936 0.224609 11.1501 0.502871C10.6452 0.900172 10.5658 1.35186 10.5583 1.38712C10.5321 1.49772 10.5185 1.61096 10.5178 1.72462V5.24963C10.5178 6.49227 11.5252 7.49963 12.7678 7.49963H16.3071C16.7766 7.50097 17.2186 7.27804 17.4966 6.89962C17.7022 6.62241 17.8079 6.28379 17.7966 5.93887C17.7906 5.81878 17.771 5.69974 17.7381 5.58411Z" fill="#232B31"/>
</g>
<defs>
<clipPath id="clip0_245_7323">
<rect width="18" height="18" fill="white"/>
</clipPath>
</defs>
</svg>
