<svg width="19" height="18" viewBox="0 0 19 18" fill="none" xmlns="http://www.w3.org/2000/svg">
<g clip-path="url(#clip0_245_6618)">
<path fill-rule="evenodd" clip-rule="evenodd" d="M7.45029 1H11.0503C14.4444 1 16.1415 1 17.1958 2.05441C17.9551 2.8136 18.1677 3.90594 18.2272 5.725H0.273438C0.332955 3.90594 0.545517 2.8136 1.3047 2.05441C2.35912 1 4.05617 1 7.45029 1ZM14.425 10.45C13.3067 10.45 12.4 11.3567 12.4 12.475C12.4 13.5933 13.3067 14.5 14.425 14.5C15.5433 14.5 16.45 13.5933 16.45 12.475C16.45 11.3567 15.5433 10.45 14.425 10.45ZM11.05 12.475C11.05 10.611 12.561 9.1 14.425 9.1C16.289 9.1 17.8 10.611 17.8 12.475C17.8 13.1629 17.5942 13.8027 17.2408 14.3362L18.0523 15.1477C18.3159 15.4113 18.3159 15.8387 18.0523 16.1023C17.7887 16.3659 17.3613 16.3659 17.0977 16.1023L16.2862 15.2908C15.7527 15.6442 15.1129 15.85 14.425 15.85C12.561 15.85 11.05 14.339 11.05 12.475ZM10.7139 15.4H7.45C4.05588 15.4 2.35883 15.4 1.30441 14.3456C0.25 13.2912 0.25 11.5941 0.25 8.2C0.25 7.80229 0.25 7.4278 0.251701 7.075H18.2483C18.25 7.4278 18.25 7.80229 18.25 8.2C18.25 8.73973 18.25 9.23653 18.2458 9.69463C17.3865 8.51599 15.9952 7.75 14.425 7.75C11.8154 7.75 9.7 9.86545 9.7 12.475C9.7 13.5795 10.079 14.5955 10.7139 15.4Z" fill="#232B31"/>
</g>
<defs>
<clipPath id="clip0_245_6618">
<rect width="18" height="18" fill="white" transform="translate(0.25)"/>
</clipPath>
</defs>
</svg>
