<svg width="19" height="18" viewBox="0 0 19 18" fill="none" xmlns="http://www.w3.org/2000/svg">
<path d="M5.94444 0C4.76614 0.00119088 3.6365 0.396657 2.80331 1.09965C1.97012 1.80265 1.50141 2.75577 1.5 3.74996V17.2498C1.50013 17.3862 1.54434 17.52 1.62789 17.6368C1.71145 17.7536 1.83117 17.849 1.97417 17.9126C2.11717 17.9762 2.27803 18.0058 2.43945 17.998C2.60086 17.9903 2.75671 17.9455 2.89022 17.8686L4.76222 16.7893L6.63422 17.8686C6.78212 17.954 6.95719 17.9997 7.13644 17.9997C7.3157 17.9997 7.49077 17.954 7.63867 17.8686L9.50533 16.7893L11.372 17.8686C11.52 17.9542 11.6952 18 11.8747 18C12.0541 18 12.2293 17.9542 12.3773 17.8686L14.244 16.7901L16.1107 17.8678C16.2441 17.9445 16.3998 17.9891 16.561 17.9968C16.7222 18.0045 16.8828 17.975 17.0257 17.9114C17.1685 17.8479 17.2881 17.7527 17.3717 17.6362C17.4552 17.5196 17.4996 17.386 17.5 17.2498V3.74996C17.4986 2.75577 17.0299 1.80265 16.1967 1.09965C15.3635 0.396657 14.2339 0.00119088 13.0556 0L5.94444 0ZM11.2778 10.4999H5.94444C5.7087 10.4999 5.4826 10.4209 5.31591 10.2802C5.14921 10.1396 5.05556 9.94881 5.05556 9.7499C5.05556 9.55099 5.14921 9.36022 5.31591 9.21957C5.4826 9.07892 5.7087 8.99991 5.94444 8.99991H11.2778C11.5135 8.99991 11.7396 9.07892 11.9063 9.21957C12.073 9.36022 12.1667 9.55099 12.1667 9.7499C12.1667 9.94881 12.073 10.1396 11.9063 10.2802C11.7396 10.4209 11.5135 10.4999 11.2778 10.4999ZM13.9444 6.74993C13.9444 6.94884 13.8508 7.1396 13.6841 7.28025C13.5174 7.4209 13.2913 7.49992 13.0556 7.49992H5.94444C5.7087 7.49992 5.4826 7.4209 5.31591 7.28025C5.14921 7.1396 5.05556 6.94884 5.05556 6.74993C5.05556 6.55102 5.14921 6.36026 5.31591 6.2196C5.4826 6.07895 5.7087 5.99994 5.94444 5.99994H13.0556C13.2913 5.99994 13.5174 6.07895 13.6841 6.2196C13.8508 6.36026 13.9444 6.55102 13.9444 6.74993Z" fill="#232B31"/>
</svg>
