<svg width="76" height="76" viewBox="0 0 76 76" fill="none" xmlns="http://www.w3.org/2000/svg">
<rect width="76" height="76" rx="38" fill="url(#paint0_linear_245_6010)" fill-opacity="0.2"/>
<path fill-rule="evenodd" clip-rule="evenodd" d="M26.8389 24.8328C28.2276 23.6611 30.1103 23.002 32.0742 23H43.926C45.8899 23.002 47.7726 23.6611 49.1612 24.8328C50.5499 26.0044 51.3311 27.593 51.3334 29.2499V51.7497C51.3328 51.9767 51.2588 52.1994 51.1195 52.3936C50.9802 52.5879 50.7809 52.7465 50.5428 52.8524C50.3048 52.9583 50.0371 53.0074 49.7684 52.9946C49.4997 52.9818 49.2403 52.9075 49.0179 52.7797L45.9067 50.9835L42.7956 52.7809C42.549 52.9236 42.2569 53 41.9579 53C41.6588 53 41.3667 52.9236 41.1201 52.7809L38.009 50.9822L34.8979 52.7809C34.6514 52.9234 34.3596 52.9996 34.0608 52.9996C33.7621 52.9996 33.4703 52.9234 33.2238 52.7809L30.1038 50.9822L26.9838 52.7809C26.7613 52.9092 26.5015 52.9838 26.2325 52.9967C25.9635 53.0096 25.6954 52.9604 25.457 52.8543C25.2187 52.7483 25.0192 52.5893 24.8799 52.3947C24.7407 52.2001 24.667 51.9771 24.6667 51.7497V29.2499C24.6691 27.593 25.4503 26.0044 26.8389 24.8328ZM38.0001 44.6667C42.6025 44.6667 46.3335 40.9357 46.3335 36.3333C46.3335 31.731 42.6025 28 38.0001 28C33.3978 28 29.6668 31.731 29.6668 36.3333C29.6668 40.9357 33.3978 44.6667 38.0001 44.6667Z" fill="url(#paint1_linear_245_6010)"/>
<path d="M38 41.333L38 31.333M38 31.333L43 36.333M38 31.333L33 36.333" stroke="url(#paint2_linear_245_6010)" stroke-width="1.66667" stroke-linecap="round"/>
<defs>
<linearGradient id="paint0_linear_245_6010" x1="-12.1165" y1="44.7556" x2="88.6634" y2="21.6943" gradientUnits="userSpaceOnUse">
<stop stop-color="#F6DEC6"/>
<stop offset="0.47" stop-color="#E872D4"/>
<stop offset="0.656667" stop-color="#C190D9"/>
<stop offset="0.881578" stop-color="#A2DCFE"/>
</linearGradient>
<linearGradient id="paint1_linear_245_6010" x1="20.4154" y1="40.6667" x2="56.1499" y2="33.3982" gradientUnits="userSpaceOnUse">
<stop stop-color="#F6DEC6"/>
<stop offset="0.47" stop-color="#E872D4"/>
<stop offset="0.656667" stop-color="#C190D9"/>
<stop offset="0.881578" stop-color="#A2DCFE"/>
</linearGradient>
<linearGradient id="paint2_linear_245_6010" x1="37.1111" y1="42.9273" x2="40.1455" y2="29.6668" gradientUnits="userSpaceOnUse">
<stop stop-color="#F6DEC6"/>
<stop offset="0.47" stop-color="#E872D4"/>
<stop offset="0.656667" stop-color="#C190D9"/>
<stop offset="0.881578" stop-color="#A2DCFE"/>
</linearGradient>
</defs>
</svg>
