<svg width="14" height="13" viewBox="0 0 14 13" fill="none" xmlns="http://www.w3.org/2000/svg">
<path fill-rule="evenodd" clip-rule="evenodd" d="M13.2222 6.49957C13.2222 9.93598 10.4364 12.7218 6.99999 12.7218C3.56355 12.7218 0.777771 9.93598 0.777771 6.49957C0.777771 3.06313 3.56355 0.277344 6.99999 0.277344C10.4364 0.277344 13.2222 3.06313 13.2222 6.49957ZM5.11443 4.61402C5.29667 4.43177 5.59215 4.43177 5.7744 4.61402L6.99999 5.83957L8.22552 4.61403C8.40777 4.43178 8.70326 4.43178 8.88551 4.61403C9.06776 4.79627 9.06776 5.09175 8.88551 5.27398L7.65992 6.49957L8.88551 7.72509C9.06776 7.90734 9.06776 8.20284 8.88551 8.38509C8.70326 8.56734 8.40777 8.56734 8.22552 8.38509L6.99999 7.15956L5.7744 8.38509C5.59217 8.56734 5.29669 8.56734 5.11444 8.38509C4.9322 8.20284 4.9322 7.90734 5.11444 7.72516L6.34 6.49957L5.11443 5.27398C4.93218 5.09174 4.93218 4.79626 5.11443 4.61402Z" fill="#E45757"/>
</svg>
