<svg width="14" height="13" viewBox="0 0 14 13" fill="none" xmlns="http://www.w3.org/2000/svg">
<path fill-rule="evenodd" clip-rule="evenodd" d="M13.2222 6.49957C13.2222 9.93598 10.4364 12.7218 6.99999 12.7218C3.56355 12.7218 0.777771 9.93598 0.777771 6.49957C0.777771 3.06313 3.56355 0.277344 6.99999 0.277344C10.4364 0.277344 13.2222 3.06313 13.2222 6.49957ZM9.50774 4.61403C9.68998 4.79627 9.68998 5.09175 9.50774 5.27398L6.39662 8.38509C6.21438 8.56734 5.91894 8.56734 5.73668 8.38509L4.49223 7.14064C4.30999 6.95839 4.30999 6.66296 4.49223 6.48071C4.67448 6.29846 4.96996 6.29846 5.1522 6.48071L6.06666 7.39513L7.4572 6.00459L8.84781 4.61403C9.03006 4.43178 9.32549 4.43178 9.50774 4.61403Z" fill="#27A963"/>
</svg>
