<svg width="19" height="18" viewBox="0 0 19 18" fill="none" xmlns="http://www.w3.org/2000/svg">
<g clip-path="url(#clip0_245_7032)">
<path d="M14.285 9.00011H10.7502C9.9218 9.00011 9.25021 8.32852 9.25021 7.5001V3.95561C9.25228 3.25635 8.92909 2.59583 8.3757 2.16837C7.85131 1.7531 7.16372 1.6051 6.51495 1.76787C2.1053 2.86249 -0.58208 7.32463 0.512581 11.7343C1.2838 14.8411 3.78721 17.2185 6.92972 17.8284C11.2227 18.6501 15.4114 15.981 16.4802 11.7429C16.6436 11.0932 16.4959 10.4046 16.0805 9.87912C15.6481 9.32671 14.9865 9.00278 14.285 9.00011Z" fill="#CDCED1"/>
<path d="M17.9881 5.58411C17.8169 4.94771 17.5619 4.33687 17.2298 3.76762C16.231 2.05418 14.5995 0.801313 12.6863 0.278609C12.5603 0.244613 12.2783 0.224609 12.2783 0.224609C12.1776 0.224645 11.7436 0.224609 11.4001 0.502871C10.8952 0.900172 10.8158 1.35186 10.8083 1.38712C10.7821 1.49772 10.7685 1.61096 10.7678 1.72462V5.24963C10.7678 6.49227 11.7752 7.49963 13.0178 7.49963H16.5571C17.0266 7.50097 17.4686 7.27804 17.7466 6.89962C17.9522 6.62241 18.0579 6.28379 18.0466 5.93887C18.0406 5.81878 18.021 5.69974 17.9881 5.58411Z" fill="#CDCED1"/>
</g>
<defs>
<clipPath id="clip0_245_7032">
<rect width="18" height="18" fill="white" transform="translate(0.25)"/>
</clipPath>
</defs>
</svg>
