<svg width="18" height="19" viewBox="0 0 18 19" fill="none" xmlns="http://www.w3.org/2000/svg">
<g clip-path="url(#clip0_2_202)">
<path d="M14.035 9.49962H10.5002C9.6718 9.49962 9.00021 8.82803 9.00021 7.99961V4.45512C9.00228 3.75586 8.67909 3.09535 8.1257 2.66788C7.60131 2.25262 6.91372 2.10461 6.26495 2.26738C1.8553 3.36201 -0.83208 7.82414 0.262581 12.2338C1.0338 15.3407 3.53721 17.718 6.67972 18.3279C10.9727 19.1496 15.1614 16.4805 16.2302 12.2424C16.3936 11.5928 16.2459 10.9041 15.8305 10.3786C15.3981 9.82622 14.7365 9.50229 14.035 9.49962Z" fill="#CDCED1"/>
<path d="M17.7381 6.08411C17.5669 5.44771 17.3119 4.83687 16.9798 4.26762C15.981 2.55418 14.3495 1.30131 12.4363 0.778609C12.3103 0.744613 12.0283 0.724609 12.0283 0.724609C11.9276 0.724645 11.4936 0.724609 11.1501 1.00287C10.6452 1.40017 10.5658 1.85186 10.5583 1.88712C10.5321 1.99772 10.5185 2.11096 10.5178 2.22462V5.74963C10.5178 6.99227 11.5252 7.99963 12.7678 7.99963H16.3071C16.7766 8.00097 17.2186 7.77804 17.4966 7.39962C17.7022 7.12241 17.8079 6.78379 17.7966 6.43887C17.7906 6.31878 17.771 6.19974 17.7381 6.08411Z" fill="#CDCED1"/>
</g>
<defs>
<clipPath id="clip0_2_202">
<rect width="18" height="18" fill="white" transform="translate(0 0.499512)"/>
</clipPath>
</defs>
</svg>
