<svg width="17" height="17" viewBox="0 0 17 17" fill="none" xmlns="http://www.w3.org/2000/svg">
<path d="M14.0352 7.49956H10.5005C9.67204 7.49956 9.00045 6.82797 9.00045 5.99955V2.45506C9.00253 1.7558 8.67934 1.09528 8.12594 0.66782C7.60155 0.252554 6.91397 0.104546 6.26519 0.26732C1.85554 1.36194 -0.831835 5.82408 0.262825 10.2338M14.0352 7.49956L14.0333 7.99955C14.0336 7.99956 14.0339 7.99956 14.0342 7.99956M14.0352 7.49956C14.7367 7.50223 15.3983 7.82616 15.8307 8.37857C16.2461 8.90405 16.3938 9.59269 16.2305 10.2423M14.0352 7.49956V7.99956H14.0342M14.0342 7.99956H10.5005C9.3959 7.99956 8.50045 7.10411 8.50045 5.99955V2.45506V2.45357C8.50207 1.90972 8.2507 1.39598 7.82029 1.06352L7.81551 1.05983L7.81553 1.0598C7.41289 0.740947 6.88497 0.627318 6.38687 0.752289L6.38565 0.752594C2.24401 1.78069 -0.280033 5.97163 0.748096 10.1133L0.262825 10.2338M14.0342 7.99956C14.5823 8.00193 15.0991 8.25512 15.437 8.68676L15.4385 8.68865C15.7575 9.09224 15.871 9.62112 15.7457 10.12M0.262825 10.2338L0.748097 10.1133C1.4724 13.0311 3.82339 15.2639 6.77463 15.8369M0.262825 10.2338C1.03405 13.3406 3.53745 15.718 6.67997 16.3278M6.77463 15.8369C10.8072 16.6084 14.7417 14.1011 15.7457 10.12M6.77463 15.8369C6.77483 15.8369 6.77503 15.8369 6.77522 15.837L6.67997 16.3278M6.77463 15.8369C6.77441 15.8368 6.77419 15.8368 6.77396 15.8367L6.67997 16.3278M6.67997 16.3278C10.9729 17.1495 15.1617 14.4805 16.2305 10.2423M16.2305 10.2423L15.7457 10.12M16.2305 10.2423L15.7456 10.1204C15.7456 10.1203 15.7456 10.1201 15.7457 10.12" fill="#232B31" stroke="url(#paint0_linear_29_3573)"/>
<defs>
<linearGradient id="paint0_linear_29_3573" x1="8.15709" y1="0.202576" x2="8.15709" y2="16.4762" gradientUnits="userSpaceOnUse">
<stop stop-color="#CDE8E5"/>
<stop offset="1" stop-color="#124AE8" stop-opacity="0.7"/>
</linearGradient>
</defs>
</svg>
