<svg width="18" height="17" viewBox="0 0 18 17" fill="none" xmlns="http://www.w3.org/2000/svg">
<path d="M9 0.499512C7.41775 0.499512 5.87103 0.968703 4.55544 1.84775C3.23985 2.72681 2.21447 3.97623 1.60897 5.43804C1.00347 6.89985 0.84504 8.50838 1.15372 10.0602C1.4624 11.6121 2.22433 13.0375 3.34315 14.1564C4.46197 15.2752 5.88743 16.0371 7.43928 16.3458C8.99113 16.6545 10.5997 16.496 12.0615 15.8905C13.5233 15.285 14.7727 14.2597 15.6518 12.9441C16.5308 11.6285 17 10.0818 17 8.49951C16.9977 6.37848 16.1541 4.34498 14.6543 2.84519C13.1545 1.3454 11.121 0.501806 9 0.499512V0.499512ZM9 13.8328C8.86815 13.8328 8.73925 13.7937 8.62962 13.7205C8.51999 13.6472 8.43454 13.5431 8.38408 13.4213C8.33362 13.2995 8.32042 13.1654 8.34615 13.0361C8.37187 12.9068 8.43536 12.788 8.5286 12.6948C8.62183 12.6015 8.74062 12.538 8.86994 12.5123C8.99926 12.4866 9.13331 12.4998 9.25512 12.5503C9.37694 12.6007 9.48106 12.6862 9.55431 12.7958C9.62757 12.9054 9.66667 13.0343 9.66667 13.1662C9.66667 13.343 9.59643 13.5126 9.47141 13.6376C9.34638 13.7626 9.17681 13.8328 9 13.8328ZM10.2867 8.83684C10.0899 8.95985 9.92905 9.1325 9.82022 9.33741C9.71138 9.54233 9.65842 9.7723 9.66667 10.0042V10.4995C9.66667 10.6763 9.59643 10.8459 9.47141 10.9709C9.34638 11.0959 9.17681 11.1662 9 11.1662C8.82319 11.1662 8.65362 11.0959 8.5286 10.9709C8.40357 10.8459 8.33334 10.6763 8.33334 10.4995V10.0042C8.32349 9.53379 8.43971 9.06934 8.66995 8.65904C8.90019 8.24874 9.23605 7.90753 9.64267 7.67084C9.88898 7.53518 10.0861 7.32511 10.2058 7.07067C10.3256 6.81623 10.3618 6.53045 10.3093 6.25418C10.2574 5.99098 10.1282 5.74924 9.93817 5.55984C9.74817 5.37043 9.50603 5.24197 9.24267 5.19084C9.05048 5.15527 8.85283 5.16239 8.66369 5.21169C8.47456 5.26098 8.29858 5.35126 8.14821 5.47612C7.99785 5.60098 7.87677 5.75738 7.79355 5.93423C7.71034 6.11108 7.66702 6.30406 7.66667 6.49951C7.66667 6.67632 7.59643 6.84589 7.47141 6.97092C7.34638 7.09594 7.17681 7.16618 7 7.16618C6.82319 7.16618 6.65362 7.09594 6.5286 6.97092C6.40357 6.84589 6.33334 6.67632 6.33334 6.49951C6.3335 6.02918 6.45806 5.56726 6.69437 5.16061C6.93068 4.75396 7.27035 4.41704 7.6789 4.18404C8.08746 3.95103 8.55037 3.83022 9.02068 3.83387C9.491 3.83752 9.95198 3.96549 10.3569 4.20481C10.7618 4.44412 11.0962 4.78627 11.3261 5.19654C11.5561 5.6068 11.6735 6.0706 11.6664 6.54087C11.6592 7.01115 11.5279 7.47117 11.2855 7.87428C11.0432 8.27739 10.6986 8.60924 10.2867 8.83618V8.83684Z" fill="#232B31" stroke="url(#paint0_linear_294_165)"/>
<defs>
<linearGradient id="paint0_linear_294_165" x1="-1.55083" y1="9.92173" x2="19.666" y2="5.06674" gradientUnits="userSpaceOnUse">
<stop stop-color="#F6DEC6"/>
<stop offset="0.47" stop-color="#E872D4"/>
<stop offset="0.656667" stop-color="#C190D9"/>
<stop offset="0.881578" stop-color="#A2DCFE"/>
</linearGradient>
</defs>
</svg>
