<svg width="18" height="19" viewBox="0 0 18 19" fill="none" xmlns="http://www.w3.org/2000/svg">
<path d="M9 1.49951C7.41775 1.49951 5.87103 1.9687 4.55544 2.84775C3.23985 3.72681 2.21447 4.97623 1.60897 6.43804C1.00347 7.89985 0.84504 9.50838 1.15372 11.0602C1.4624 12.6121 2.22433 14.0375 3.34315 15.1564C4.46197 16.2752 5.88743 17.0371 7.43928 17.3458C8.99113 17.6545 10.5997 17.496 12.0615 16.8905C13.5233 16.285 14.7727 15.2597 15.6518 13.9441C16.5308 12.6285 17 11.0818 17 9.49951C16.9977 7.37848 16.1541 5.34498 14.6543 3.84519C13.1545 2.3454 11.121 1.50181 9 1.49951V1.49951ZM9 14.8328C8.86815 14.8328 8.73925 14.7937 8.62962 14.7205C8.51999 14.6472 8.43454 14.5431 8.38408 14.4213C8.33362 14.2995 8.32042 14.1654 8.34615 14.0361C8.37187 13.9068 8.43536 13.788 8.5286 13.6948C8.62183 13.6015 8.74062 13.538 8.86994 13.5123C8.99926 13.4866 9.13331 13.4998 9.25512 13.5503C9.37694 13.6007 9.48106 13.6862 9.55431 13.7958C9.62757 13.9054 9.66667 14.0343 9.66667 14.1662C9.66667 14.343 9.59643 14.5126 9.47141 14.6376C9.34638 14.7626 9.17681 14.8328 9 14.8328ZM10.2867 9.83684C10.0899 9.95985 9.92905 10.1325 9.82022 10.3374C9.71138 10.5423 9.65842 10.7723 9.66667 11.0042V11.4995C9.66667 11.6763 9.59643 11.8459 9.47141 11.9709C9.34638 12.0959 9.17681 12.1662 9 12.1662C8.82319 12.1662 8.65362 12.0959 8.5286 11.9709C8.40357 11.8459 8.33334 11.6763 8.33334 11.4995V11.0042C8.32349 10.5338 8.43971 10.0693 8.66995 9.65904C8.90019 9.24874 9.23605 8.90753 9.64267 8.67084C9.88898 8.53518 10.0861 8.32511 10.2058 8.07067C10.3256 7.81623 10.3618 7.53045 10.3093 7.25418C10.2574 6.99098 10.1282 6.74924 9.93817 6.55984C9.74817 6.37043 9.50603 6.24197 9.24267 6.19084C9.05048 6.15527 8.85283 6.16239 8.66369 6.21169C8.47456 6.26098 8.29858 6.35126 8.14821 6.47612C7.99785 6.60098 7.87677 6.75738 7.79355 6.93423C7.71034 7.11108 7.66702 7.30406 7.66667 7.49951C7.66667 7.67632 7.59643 7.84589 7.47141 7.97092C7.34638 8.09594 7.17681 8.16618 7 8.16618C6.82319 8.16618 6.65362 8.09594 6.5286 7.97092C6.40357 7.84589 6.33334 7.67632 6.33334 7.49951C6.3335 7.02918 6.45806 6.56726 6.69437 6.16061C6.93068 5.75396 7.27035 5.41704 7.6789 5.18404C8.08746 4.95103 8.55037 4.83022 9.02068 4.83387C9.491 4.83752 9.95198 4.96549 10.3569 5.20481C10.7618 5.44412 11.0962 5.78627 11.3261 6.19654C11.5561 6.6068 11.6735 7.0706 11.6664 7.54087C11.6592 8.01115 11.5279 8.47117 11.2855 8.87428C11.0432 9.27739 10.6986 9.60924 10.2867 9.83618V9.83684Z" fill="#232B31" stroke="url(#paint0_linear_2_150)"/>
<defs>
<linearGradient id="paint0_linear_2_150" x1="-1.55083" y1="10.9217" x2="19.666" y2="6.06674" gradientUnits="userSpaceOnUse">
<stop stop-color="#F6DEC6"/>
<stop offset="0.47" stop-color="#E872D4"/>
<stop offset="0.656667" stop-color="#C190D9"/>
<stop offset="0.881578" stop-color="#A2DCFE"/>
</linearGradient>
</defs>
</svg>
