<svg width="18" height="19" viewBox="0 0 18 19" fill="none" xmlns="http://www.w3.org/2000/svg">
<path d="M9 1.49957C7.41775 1.49957 5.87103 1.96876 4.55544 2.84782C3.23985 3.72687 2.21447 4.9763 1.60897 6.4381C1.00347 7.89991 0.84504 9.50845 1.15372 11.0603C1.4624 12.6121 2.22433 14.0376 3.34315 15.1564C4.46197 16.2752 5.88743 17.0372 7.43928 17.3459C8.99113 17.6545 10.5997 17.4961 12.0615 16.8906C13.5233 16.2851 14.7727 15.2597 15.6518 13.9441C16.5308 12.6285 17 11.0818 17 9.49957C16.9977 7.37854 16.1541 5.34505 14.6543 3.84525C13.1545 2.34546 11.121 1.50187 9 1.49957V1.49957ZM9 14.8329C8.86815 14.8329 8.73925 14.7938 8.62962 14.7206C8.51999 14.6473 8.43454 14.5432 8.38408 14.4214C8.33362 14.2995 8.32042 14.1655 8.34615 14.0362C8.37187 13.9069 8.43536 13.7881 8.5286 13.6948C8.62183 13.6016 8.74062 13.5381 8.86994 13.5124C8.99926 13.4867 9.13331 13.4999 9.25512 13.5503C9.37694 13.6008 9.48106 13.6862 9.55431 13.7959C9.62757 13.9055 9.66667 14.0344 9.66667 14.1662C9.66667 14.343 9.59643 14.5126 9.47141 14.6376C9.34638 14.7627 9.17681 14.8329 9 14.8329ZM10.2867 9.8369C10.0899 9.95991 9.92905 10.1326 9.82022 10.3375C9.71138 10.5424 9.65842 10.7724 9.66667 11.0042V11.4996C9.66667 11.6764 9.59643 11.846 9.47141 11.971C9.34638 12.096 9.17681 12.1662 9 12.1662C8.82319 12.1662 8.65362 12.096 8.5286 11.971C8.40357 11.846 8.33334 11.6764 8.33334 11.4996V11.0042C8.32349 10.5339 8.43971 10.0694 8.66995 9.6591C8.90019 9.2488 9.23605 8.90759 9.64267 8.67091C9.88898 8.53524 10.0861 8.32517 10.2058 8.07073C10.3256 7.81629 10.3618 7.53051 10.3093 7.25424C10.2574 6.99104 10.1282 6.7493 9.93817 6.5599C9.74817 6.3705 9.50603 6.24203 9.24267 6.19091C9.05048 6.15533 8.85283 6.16245 8.66369 6.21175C8.47456 6.26104 8.29858 6.35132 8.14821 6.47618C7.99785 6.60104 7.87677 6.75744 7.79355 6.93429C7.71034 7.11114 7.66702 7.30412 7.66667 7.49957C7.66667 7.67638 7.59643 7.84595 7.47141 7.97098C7.34638 8.096 7.17681 8.16624 7 8.16624C6.82319 8.16624 6.65362 8.096 6.5286 7.97098C6.40357 7.84595 6.33334 7.67638 6.33334 7.49957C6.3335 7.02924 6.45806 6.56732 6.69437 6.16067C6.93068 5.75402 7.27035 5.4171 7.6789 5.1841C8.08746 4.95109 8.55037 4.83028 9.02068 4.83393C9.491 4.83758 9.95198 4.96555 10.3569 5.20487C10.7618 5.44418 11.0962 5.78633 11.3261 6.1966C11.5561 6.60686 11.6735 7.07066 11.6664 7.54093C11.6592 8.01121 11.5279 8.47123 11.2855 8.87434C11.0432 9.27745 10.6986 9.6093 10.2867 9.83624V9.8369Z" fill="#232B31" stroke="url(#paint0_linear_29_3869)"/>
<defs>
<linearGradient id="paint0_linear_29_3869" x1="9" y1="1.49957" x2="9" y2="17.4996" gradientUnits="userSpaceOnUse">
<stop stop-color="#CDE8E5"/>
<stop offset="1" stop-color="#124AE8" stop-opacity="0.7"/>
</linearGradient>
</defs>
</svg>
