<svg width="60" height="61" viewBox="0 0 60 61" fill="none" xmlns="http://www.w3.org/2000/svg">
<rect y="0.5" width="60" height="60" rx="29.9" fill="url(#paint0_linear_245_7065)" fill-opacity="0.26"/>
<path d="M38.433 27.7539H35.3074C33.9573 27.7539 33.1493 26.91 33.1493 25.4999V22.2354C33.1493 20.8253 33.9573 19.9814 35.3074 19.9814H38.433C39.7831 19.9814 40.5911 20.8253 40.5911 22.2354V25.4999C40.5911 26.91 39.7831 27.7539 38.433 27.7539ZM38.6668 24.0786C38.5393 23.9454 38.3692 23.8788 38.1991 23.8788C38.029 23.8788 37.8589 23.9454 37.7313 24.0786L37.5399 24.2785V21.7913C37.5399 21.4027 37.2423 21.0918 36.8702 21.0918C36.4981 21.0918 36.2004 21.4027 36.2004 21.7913V24.2785L36.0091 24.0786C35.7539 23.8121 35.3287 23.8121 35.0735 24.0786C34.8184 24.3451 34.8184 24.7892 35.0735 25.0557L36.4024 26.4437C36.4556 26.4992 36.53 26.5436 36.6044 26.5769C36.6257 26.588 36.6469 26.588 36.6682 26.5991C36.7214 26.6213 36.7745 26.6324 36.8383 26.6324C36.8596 26.6324 36.8808 26.6324 36.9021 26.6324C36.9765 26.6324 37.0403 26.6213 37.1147 26.588C37.1253 26.588 37.1253 26.588 37.136 26.588C37.2104 26.5547 37.2742 26.5103 37.3273 26.4548C37.338 26.4437 37.338 26.4437 37.3486 26.4437L38.6775 25.0557C38.9326 24.7892 38.9326 24.3451 38.6668 24.0786Z" fill="url(#paint1_linear_245_7065)"/>
<path d="M19.3289 30.7629V36.3146C19.3289 38.8573 21.2956 40.9114 23.7301 40.9114H36.1792C38.6137 40.9114 40.5911 38.8462 40.5911 36.3035V30.7629C40.5911 30.019 40.017 29.4194 39.3047 29.4194H20.6152C19.9029 29.4194 19.3289 30.019 19.3289 30.7629ZM25.7075 37.1918H23.5813C23.1454 37.1918 22.784 36.8143 22.784 36.359C22.784 35.9038 23.1454 35.5263 23.5813 35.5263H25.7075C26.1434 35.5263 26.5049 35.9038 26.5049 36.359C26.5049 36.8143 26.1434 37.1918 25.7075 37.1918ZM32.6177 37.1918H28.3653C27.9294 37.1918 27.568 36.8143 27.568 36.359C27.568 35.9038 27.9294 35.5263 28.3653 35.5263H32.6177C33.0536 35.5263 33.4151 35.9038 33.4151 36.359C33.4151 36.8143 33.0536 37.1918 32.6177 37.1918Z" fill="url(#paint2_linear_245_7065)"/>
<path d="M31.5546 23.1553V26.4086C31.5546 27.1525 30.9806 27.7521 30.2683 27.7521H20.6152C19.8923 27.7521 19.3289 27.1303 19.3289 26.3864C19.3395 25.1317 19.8179 23.9881 20.6152 23.1553C21.4126 22.3225 22.5182 21.8118 23.7301 21.8118H30.2683C30.9806 21.8118 31.5546 22.4114 31.5546 23.1553Z" fill="url(#paint3_linear_245_7065)"/>
<defs>
<linearGradient id="paint0_linear_245_7065" x1="-9.56562" y1="35.8333" x2="69.9974" y2="17.6271" gradientUnits="userSpaceOnUse">
<stop stop-color="#F6DEC6"/>
<stop offset="0.47" stop-color="#E872D4"/>
<stop offset="0.656667" stop-color="#C190D9"/>
<stop offset="0.881578" stop-color="#A2DCFE"/>
</linearGradient>
<linearGradient id="paint1_linear_245_7065" x1="15.9391" y1="32.3069" x2="44.0891" y2="25.7632" gradientUnits="userSpaceOnUse">
<stop stop-color="#F6DEC6"/>
<stop offset="0.47" stop-color="#E872D4"/>
<stop offset="0.656667" stop-color="#C190D9"/>
<stop offset="0.881578" stop-color="#A2DCFE"/>
</linearGradient>
<linearGradient id="paint2_linear_245_7065" x1="15.9391" y1="32.3069" x2="44.0891" y2="25.7632" gradientUnits="userSpaceOnUse">
<stop stop-color="#F6DEC6"/>
<stop offset="0.47" stop-color="#E872D4"/>
<stop offset="0.656667" stop-color="#C190D9"/>
<stop offset="0.881578" stop-color="#A2DCFE"/>
</linearGradient>
<linearGradient id="paint3_linear_245_7065" x1="15.9391" y1="32.3069" x2="44.0891" y2="25.7632" gradientUnits="userSpaceOnUse">
<stop stop-color="#F6DEC6"/>
<stop offset="0.47" stop-color="#E872D4"/>
<stop offset="0.656667" stop-color="#C190D9"/>
<stop offset="0.881578" stop-color="#A2DCFE"/>
</linearGradient>
</defs>
</svg>
