<svg width="19" height="18" viewBox="0 0 19 18" fill="none" xmlns="http://www.w3.org/2000/svg">
<g clip-path="url(#clip0_245_7028)">
<path fill-rule="evenodd" clip-rule="evenodd" d="M7.95029 1H11.5503C14.9444 1 16.6415 1 17.6958 2.05441C18.4551 2.8136 18.6677 3.90594 18.7272 5.725H0.773438C0.832955 3.90594 1.04552 2.8136 1.8047 2.05441C2.85912 1 4.55617 1 7.95029 1ZM14.925 10.45C13.8067 10.45 12.9 11.3567 12.9 12.475C12.9 13.5933 13.8067 14.5 14.925 14.5C16.0433 14.5 16.95 13.5933 16.95 12.475C16.95 11.3567 16.0433 10.45 14.925 10.45ZM11.55 12.475C11.55 10.611 13.061 9.1 14.925 9.1C16.789 9.1 18.3 10.611 18.3 12.475C18.3 13.1629 18.0942 13.8027 17.7408 14.3362L18.5523 15.1477C18.8159 15.4113 18.8159 15.8387 18.5523 16.1023C18.2887 16.3659 17.8613 16.3659 17.5977 16.1023L16.7862 15.2908C16.2527 15.6442 15.6129 15.85 14.925 15.85C13.061 15.85 11.55 14.339 11.55 12.475ZM11.2139 15.4H7.95C4.55588 15.4 2.85883 15.4 1.80441 14.3456C0.75 13.2912 0.75 11.5941 0.75 8.2C0.75 7.80229 0.75 7.4278 0.751701 7.075H18.7483C18.75 7.4278 18.75 7.80229 18.75 8.2C18.75 8.73973 18.75 9.23653 18.7458 9.69463C17.8865 8.51599 16.4952 7.75 14.925 7.75C12.3154 7.75 10.2 9.86545 10.2 12.475C10.2 13.5795 10.579 14.5955 11.2139 15.4Z" fill="#CDCED1"/>
</g>
<defs>
<clipPath id="clip0_245_7028">
<rect width="18" height="18" fill="white" transform="translate(0.75)"/>
</clipPath>
</defs>
</svg>
