<svg width="18" height="17" viewBox="0 0 18 17" fill="none" xmlns="http://www.w3.org/2000/svg">
<path fill-rule="evenodd" clip-rule="evenodd" d="M3.54545 0.499573H5.45455C6.86036 0.499573 8 1.63921 8 3.04503V4.95412C8 6.35993 6.86036 7.49957 5.45455 7.49957H3.54545C2.13964 7.49957 1 6.35993 1 4.95412V3.04503C1 1.63921 2.13964 0.499573 3.54545 0.499573ZM12.5455 0.499573H14.4545C15.8604 0.499573 17 1.63921 17 3.04503V4.95412C17 6.35993 15.8604 7.49957 14.4545 7.49957H12.5455C11.1396 7.49957 10 6.35993 10 4.95412V3.04503C10 1.63921 11.1396 0.499573 12.5455 0.499573ZM5.45455 9.49957H3.54545C2.13964 9.49957 1 10.6392 1 12.045V13.9541C1 15.3599 2.13964 16.4996 3.54545 16.4996H5.45455C6.86036 16.4996 8 15.3599 8 13.9541V12.045C8 10.6392 6.86036 9.49957 5.45455 9.49957ZM12.5455 9.49957H14.4545C15.8604 9.49957 17 10.6392 17 12.045V13.9541C17 15.3599 15.8604 16.4996 14.4545 16.4996H12.5455C11.1396 16.4996 10 15.3599 10 13.9541V12.045C10 10.6392 11.1396 9.49957 12.5455 9.49957Z" fill="#232B31"/>
<path d="M5.45455 -0.000427246H3.54545V0.999573H5.45455V-0.000427246ZM8.5 3.04503C8.5 1.36307 7.1365 -0.000427246 5.45455 -0.000427246V0.999573C6.58422 0.999573 7.5 1.91535 7.5 3.04503H8.5ZM8.5 4.95412V3.04503H7.5V4.95412H8.5ZM5.45455 7.99957C7.1365 7.99957 8.5 6.63608 8.5 4.95412H7.5C7.5 6.08379 6.58422 6.99957 5.45455 6.99957V7.99957ZM3.54545 7.99957H5.45455V6.99957H3.54545V7.99957ZM0.5 4.95412C0.5 6.63608 1.8635 7.99957 3.54545 7.99957V6.99957C2.41578 6.99957 1.5 6.08379 1.5 4.95412H0.5ZM0.5 3.04503V4.95412H1.5V3.04503H0.5ZM3.54545 -0.000427246C1.8635 -0.000427246 0.5 1.36307 0.5 3.04503H1.5C1.5 1.91535 2.41578 0.999573 3.54545 0.999573V-0.000427246ZM14.4545 -0.000427246H12.5455V0.999573H14.4545V-0.000427246ZM17.5 3.04503C17.5 1.36307 16.1365 -0.000427246 14.4545 -0.000427246V0.999573C15.5842 0.999573 16.5 1.91535 16.5 3.04503H17.5ZM17.5 4.95412V3.04503H16.5V4.95412H17.5ZM14.4545 7.99957C16.1365 7.99957 17.5 6.63608 17.5 4.95412H16.5C16.5 6.08379 15.5842 6.99957 14.4545 6.99957V7.99957ZM12.5455 7.99957H14.4545V6.99957H12.5455V7.99957ZM9.5 4.95412C9.5 6.63608 10.8635 7.99957 12.5455 7.99957V6.99957C11.4158 6.99957 10.5 6.08379 10.5 4.95412H9.5ZM9.5 3.04503V4.95412H10.5V3.04503H9.5ZM12.5455 -0.000427246C10.8635 -0.000427246 9.5 1.36307 9.5 3.04503H10.5C10.5 1.91535 11.4158 0.999573 12.5455 0.999573V-0.000427246ZM3.54545 9.99957H5.45455V8.99957H3.54545V9.99957ZM1.5 12.045C1.5 10.9154 2.41578 9.99957 3.54545 9.99957V8.99957C1.8635 8.99957 0.5 10.3631 0.5 12.045H1.5ZM1.5 13.9541V12.045H0.5V13.9541H1.5ZM3.54545 15.9996C2.41578 15.9996 1.5 15.0838 1.5 13.9541H0.5C0.5 15.6361 1.8635 16.9996 3.54545 16.9996V15.9996ZM5.45455 15.9996H3.54545V16.9996H5.45455V15.9996ZM7.5 13.9541C7.5 15.0838 6.58422 15.9996 5.45455 15.9996V16.9996C7.1365 16.9996 8.5 15.6361 8.5 13.9541H7.5ZM7.5 12.045V13.9541H8.5V12.045H7.5ZM5.45455 9.99957C6.58422 9.99957 7.5 10.9154 7.5 12.045H8.5C8.5 10.3631 7.1365 8.99957 5.45455 8.99957V9.99957ZM14.4545 8.99957H12.5455V9.99957H14.4545V8.99957ZM17.5 12.045C17.5 10.3631 16.1365 8.99957 14.4545 8.99957V9.99957C15.5842 9.99957 16.5 10.9154 16.5 12.045H17.5ZM17.5 13.9541V12.045H16.5V13.9541H17.5ZM14.4545 16.9996C16.1365 16.9996 17.5 15.6361 17.5 13.9541H16.5C16.5 15.0838 15.5842 15.9996 14.4545 15.9996V16.9996ZM12.5455 16.9996H14.4545V15.9996H12.5455V16.9996ZM9.5 13.9541C9.5 15.6361 10.8635 16.9996 12.5455 16.9996V15.9996C11.4158 15.9996 10.5 15.0838 10.5 13.9541H9.5ZM9.5 12.045V13.9541H10.5V12.045H9.5ZM12.5455 8.99957C10.8635 8.99957 9.5 10.3631 9.5 12.045H10.5C10.5 10.9154 11.4158 9.99957 12.5455 9.99957V8.99957Z" fill="url(#paint0_linear_29_2375)"/>
<defs>
<linearGradient id="paint0_linear_29_2375" x1="9" y1="0.499573" x2="9" y2="16.4996" gradientUnits="userSpaceOnUse">
<stop stop-color="#CDE8E5"/>
<stop offset="1" stop-color="#124AE8" stop-opacity="0.7"/>
</linearGradient>
</defs>
</svg>
