<svg width="18" height="17" viewBox="0 0 18 17" fill="none" xmlns="http://www.w3.org/2000/svg">
<path fillRule="evenodd" clipRule="evenodd" d="M3.54545 0.499512H5.45455C6.86036 0.499512 8 1.63915 8 3.04497V4.95406C8 6.35987 6.86036 7.49951 5.45455 7.49951H3.54545C2.13964 7.49951 1 6.35987 1 4.95406V3.04497C1 1.63915 2.13964 0.499512 3.54545 0.499512ZM12.5455 0.499512H14.4545C15.8604 0.499512 17 1.63915 17 3.04497V4.95406C17 6.35987 15.8604 7.49951 14.4545 7.49951H12.5455C11.1396 7.49951 10 6.35987 10 4.95406V3.04497C10 1.63915 11.1396 0.499512 12.5455 0.499512ZM5.45455 9.49951H3.54545C2.13964 9.49951 1 10.6392 1 12.045V13.9541C1 15.3599 2.13964 16.4995 3.54545 16.4995H5.45455C6.86036 16.4995 8 15.3599 8 13.9541V12.045C8 10.6392 6.86036 9.49951 5.45455 9.49951ZM12.5455 9.49951H14.4545C15.8604 9.49951 17 10.6392 17 12.045V13.9541C17 15.3599 15.8604 16.4995 14.4545 16.4995H12.5455C11.1396 16.4995 10 15.3599 10 13.9541V12.045C10 10.6392 11.1396 9.49951 12.5455 9.49951Z" fill="#232B31"/>
<path d="M5.45455 -0.000488281H3.54545V0.999512H5.45455V-0.000488281ZM8.5 3.04497C8.5 1.36301 7.1365 -0.000488281 5.45455 -0.000488281V0.999512C6.58422 0.999512 7.5 1.91529 7.5 3.04497H8.5ZM8.5 4.95406V3.04497H7.5V4.95406H8.5ZM5.45455 7.99951C7.1365 7.99951 8.5 6.63602 8.5 4.95406H7.5C7.5 6.08373 6.58422 6.99951 5.45455 6.99951V7.99951ZM3.54545 7.99951H5.45455V6.99951H3.54545V7.99951ZM0.5 4.95406C0.5 6.63602 1.8635 7.99951 3.54545 7.99951V6.99951C2.41578 6.99951 1.5 6.08373 1.5 4.95406H0.5ZM0.5 3.04497V4.95406H1.5V3.04497H0.5ZM3.54545 -0.000488281C1.8635 -0.000488281 0.5 1.36301 0.5 3.04497H1.5C1.5 1.91529 2.41578 0.999512 3.54545 0.999512V-0.000488281ZM14.4545 -0.000488281H12.5455V0.999512H14.4545V-0.000488281ZM17.5 3.04497C17.5 1.36301 16.1365 -0.000488281 14.4545 -0.000488281V0.999512C15.5842 0.999512 16.5 1.91529 16.5 3.04497H17.5ZM17.5 4.95406V3.04497H16.5V4.95406H17.5ZM14.4545 7.99951C16.1365 7.99951 17.5 6.63601 17.5 4.95406H16.5C16.5 6.08373 15.5842 6.99951 14.4545 6.99951V7.99951ZM12.5455 7.99951H14.4545V6.99951H12.5455V7.99951ZM9.5 4.95406C9.5 6.63601 10.8635 7.99951 12.5455 7.99951V6.99951C11.4158 6.99951 10.5 6.08373 10.5 4.95406H9.5ZM9.5 3.04497V4.95406H10.5V3.04497H9.5ZM12.5455 -0.000488281C10.8635 -0.000488281 9.5 1.36301 9.5 3.04497H10.5C10.5 1.91529 11.4158 0.999512 12.5455 0.999512V-0.000488281ZM3.54545 9.99951H5.45455V8.99951H3.54545V9.99951ZM1.5 12.045C1.5 10.9153 2.41578 9.99951 3.54545 9.99951V8.99951C1.8635 8.99951 0.5 10.363 0.5 12.045H1.5ZM1.5 13.9541V12.045H0.5V13.9541H1.5ZM3.54545 15.9995C2.41578 15.9995 1.5 15.0837 1.5 13.9541H0.5C0.5 15.636 1.8635 16.9995 3.54545 16.9995V15.9995ZM5.45455 15.9995H3.54545V16.9995H5.45455V15.9995ZM7.5 13.9541C7.5 15.0837 6.58422 15.9995 5.45455 15.9995V16.9995C7.1365 16.9995 8.5 15.636 8.5 13.9541H7.5ZM7.5 12.045V13.9541H8.5V12.045H7.5ZM5.45455 9.99951C6.58422 9.99951 7.5 10.9153 7.5 12.045H8.5C8.5 10.363 7.1365 8.99951 5.45455 8.99951V9.99951ZM14.4545 8.99951H12.5455V9.99951H14.4545V8.99951ZM17.5 12.045C17.5 10.363 16.1365 8.99951 14.4545 8.99951V9.99951C15.5842 9.99951 16.5 10.9153 16.5 12.045H17.5ZM17.5 13.9541V12.045H16.5V13.9541H17.5ZM14.4545 16.9995C16.1365 16.9995 17.5 15.636 17.5 13.9541H16.5C16.5 15.0837 15.5842 15.9995 14.4545 15.9995V16.9995ZM12.5455 16.9995H14.4545V15.9995H12.5455V16.9995ZM9.5 13.9541C9.5 15.636 10.8635 16.9995 12.5455 16.9995V15.9995C11.4158 15.9995 10.5 15.0837 10.5 13.9541H9.5ZM9.5 12.045V13.9541H10.5V12.045H9.5ZM12.5455 8.99951C10.8635 8.99951 9.5 10.363 9.5 12.045H10.5C10.5 10.9153 11.4158 9.99951 12.5455 9.99951V8.99951Z" fill="url(#paint0_linear_2_593)"/>
<defs>
<linearGradient id="paint0_linear_2_593" x1="-1.55083" y1="9.92173" x2="19.666" y2="5.06674" gradientUnits="userSpaceOnUse">
<stop stopColor="#F6DEC6"/>
<stop offset="0.47" stopColor="#E872D4"/>
<stop offset="0.656667" stopColor="#C190D9"/>
<stop offset="0.881578" stopColor="#A2DCFE"/>
</linearGradient>
</defs>
</svg>
