<svg width="16" height="17" viewBox="0 0 16 17" fill="none" xmlns="http://www.w3.org/2000/svg">
<path fill-rule="evenodd" clip-rule="evenodd" d="M2.54545 0.499512H4.45455C5.86036 0.499512 7 1.63915 7 3.04497V4.95406C7 6.35987 5.86036 7.49951 4.45455 7.49951H2.54545C1.13964 7.49951 0 6.35987 0 4.95406V3.04497C0 1.63915 1.13964 0.499512 2.54545 0.499512ZM11.5455 0.499512H13.4545C14.8604 0.499512 16 1.63915 16 3.04497V4.95406C16 6.35987 14.8604 7.49951 13.4545 7.49951H11.5455C10.1396 7.49951 9 6.35987 9 4.95406V3.04497C9 1.63915 10.1396 0.499512 11.5455 0.499512ZM4.45455 9.49951H2.54545C1.13964 9.49951 0 10.6392 0 12.045V13.9541C0 15.3599 1.13964 16.4995 2.54545 16.4995H4.45455C5.86036 16.4995 7 15.3599 7 13.9541V12.045C7 10.6392 5.86036 9.49951 4.45455 9.49951ZM11.5455 9.49951H13.4545C14.8604 9.49951 16 10.6392 16 12.045V13.9541C16 15.3599 14.8604 16.4995 13.4545 16.4995H11.5455C10.1396 16.4995 9 15.3599 9 13.9541V12.045C9 10.6392 10.1396 9.49951 11.5455 9.49951Z" fill="#CDCED1"/>
</svg>
