<svg width="131" height="49" viewBox="0 0 131 49" fill="none" xmlns="http://www.w3.org/2000/svg">
<path d="M28.3337 5.99977H27.6013C24.278 5.99977 20.7689 5.91173 17.9375 7.65057C13.5757 10.3359 12.0344 15.3763 11.2254 18.876L6 42.9337L7.28995 42.9888C12.0234 43.1979 16.2103 39.8963 17.1504 35.219L17.1614 35.175C17.3254 34.2835 17.5877 32.9959 17.9157 31.4441L18.2218 29.9364H18.2436C19.6648 23.3882 20.4846 19.5364 21.2171 16.4108C21.3811 15.7175 21.8839 13.2853 23.1192 10.0607C24.0266 7.68359 27.0984 6.50601 28.3337 5.99977Z" fill="white"/>
<path d="M23.458 30.1671C26.4205 30.2222 29.0332 29.782 31.2852 28.8465C33.7448 27.845 35.7126 26.4804 37.1884 24.7525C38.6642 22.9917 39.6371 21.0327 40.1072 18.8757C40.293 18.1273 40.4023 17.3129 40.4351 16.4215C40.5116 14.5836 40.1727 12.9768 39.4294 11.5791L31.1212 17.2359L31.8099 13.7912C29.5033 13.1419 27.1311 14.5616 26.5845 16.8947L23.458 30.1671Z" fill="white"/>
<path d="M55.4898 23.9681C55.3675 24.6878 55.0853 25.3491 54.6619 25.9521C54.2386 26.5453 53.6647 27.0219 52.9497 27.3914C52.2441 27.761 51.4068 27.9458 50.4566 27.9555L48.6879 27.9652L47.8506 32.4194L45 32.4388L47.3144 20.0197L51.9336 20.0002C53.1567 19.9905 54.0692 20.2823 54.6808 20.8463C55.2923 21.4104 55.5839 22.1787 55.5651 23.1512C55.5651 23.4527 55.5369 23.7153 55.4898 23.9681ZM50.673 25.5825C51.7361 25.5728 52.3758 25.0476 52.5922 23.9876C52.6204 23.8028 52.6298 23.6667 52.6298 23.5791C52.6392 23.1998 52.5263 22.9178 52.3006 22.7136C52.0842 22.4996 51.7361 22.4024 51.2751 22.4024L49.7228 22.4121L49.1395 25.5923L50.673 25.5825ZM55.5839 27.4303C55.7721 26.4189 56.1202 25.5242 56.6188 24.7559C57.1268 23.9876 57.7289 23.3944 58.4251 22.9762C59.1213 22.558 59.8551 22.3537 60.6266 22.344C61.2851 22.344 61.8308 22.4802 62.273 22.7622C62.7151 23.0442 63.0256 23.4138 63.2138 23.8709L63.4772 22.4705L66.3278 22.451L64.4744 32.3124L61.6238 32.3319L61.906 30.9314C61.5391 31.3885 61.0876 31.7678 60.5325 32.0498C59.9774 32.3319 59.3753 32.4778 58.7262 32.4875C58.077 32.4972 57.4937 32.3319 56.9857 32.0207C56.4965 31.7095 56.1108 31.2621 55.8473 30.6883C55.5839 30.1048 55.4522 29.4143 55.471 28.6265C55.471 28.2473 55.5087 27.8485 55.5839 27.4303ZM62.5552 27.4109C62.5928 27.1969 62.6116 27.0024 62.6211 26.8274C62.6305 26.2536 62.4799 25.7965 62.1695 25.4658C61.8684 25.1352 61.4639 24.9796 60.9747 24.9796C60.4102 24.9796 59.8833 25.2033 59.4129 25.6409C58.9331 26.0688 58.6321 26.662 58.491 27.4109C58.4533 27.6248 58.4345 27.8193 58.4251 27.9944C58.4157 28.5682 58.5568 29.0253 58.8673 29.3657C59.1872 29.6963 59.5823 29.8519 60.0621 29.8519C60.6266 29.8519 61.1534 29.6282 61.6238 29.1906C62.0942 28.7627 62.4047 28.1597 62.5552 27.4109ZM70.3167 22.4413L71.3234 28.5974L74.6162 22.4218L77.702 22.4024L69.1596 36.9805L66.0926 37L69.1596 31.972L67.1463 22.4607L70.3167 22.4413ZM90.4403 22.2273C91.4375 22.2176 92.209 22.4996 92.7546 23.0637C93.3097 23.618 93.5825 24.3863 93.5543 25.388C93.5449 25.6895 93.5073 26.0396 93.432 26.4092L92.3595 32.1763L89.5277 32.1957L90.5344 26.8371C90.5626 26.7204 90.572 26.5648 90.5814 26.3606C90.5908 25.8646 90.4685 25.4853 90.2051 25.2324C89.9511 24.9796 89.5936 24.8434 89.1326 24.8531C88.5775 24.8531 88.1071 25.0379 87.7214 25.388C87.3357 25.7284 87.0911 26.2244 86.9782 26.8565L85.9715 32.2152L83.1397 32.2346L84.1464 26.876C84.1746 26.7593 84.184 26.6037 84.1934 26.3995C84.2028 25.9035 84.0805 25.5242 83.8171 25.2713C83.5631 25.0185 83.2056 24.8823 82.7446 24.892C82.1895 24.892 81.7191 25.0768 81.3334 25.4269C80.9477 25.7673 80.7031 26.2633 80.5902 26.8954V26.8079L79.5835 32.2541L76.7329 32.2735L78.5675 22.4121L81.4181 22.3926L81.1923 23.6472C81.5592 23.2193 81.992 22.8886 82.5 22.6552C83.0174 22.4024 83.5725 22.2759 84.1558 22.2759C84.8708 22.2759 85.4635 22.4316 85.9433 22.7428C86.4325 23.054 86.7806 23.5111 86.9782 24.114C87.4015 23.5597 87.919 23.1123 88.5399 22.7622C89.1326 22.4121 89.7817 22.237 90.4403 22.2273ZM98.4182 32.2832C97.6185 32.2832 96.9129 32.1179 96.292 31.7775C95.6805 31.4371 95.2007 30.9606 94.8714 30.3382C94.5516 29.7158 94.401 28.9961 94.4104 28.1695C94.4293 27.0511 94.7021 26.0299 95.2195 25.106C95.737 24.1821 96.4426 23.4624 97.3269 22.9373C98.2112 22.4024 99.1991 22.1301 100.281 22.1301C101.081 22.1301 101.786 22.2954 102.407 22.6455C103.038 22.9859 103.517 23.4624 103.847 24.0848C104.176 24.7073 104.336 25.4269 104.317 26.2536C104.298 27.3817 104.016 28.4126 103.489 29.3268C102.972 30.2312 102.266 30.9509 101.363 31.476C100.479 32.0207 99.5001 32.2832 98.4182 32.2832ZM98.8698 29.6866C99.3402 29.6866 99.7541 29.531 100.13 29.2392C100.516 28.928 100.808 28.539 101.024 28.0722C101.241 27.5859 101.363 27.09 101.372 26.5648C101.382 25.9715 101.241 25.5242 100.949 25.2033C100.657 24.8823 100.281 24.7267 99.82 24.7364C99.3402 24.7364 98.9168 24.892 98.5405 25.2033C98.183 25.495 97.8914 25.8937 97.6844 26.3703C97.4774 26.8565 97.3645 27.3623 97.3551 27.8874C97.3457 28.4612 97.4774 28.9086 97.7597 29.2295C98.0513 29.5407 98.4182 29.6963 98.8698 29.6866ZM108.72 23.7639C109.162 23.1707 109.425 22.947 109.99 22.6163C110.63 22.2662 111.307 22.237 111.919 22.2273L111.439 24.6975L110.649 24.717C110.601 24.717 110.545 24.7267 110.498 24.7267C109.689 24.8726 109.275 25.2033 108.767 25.6506C108.24 26.2244 108.146 26.7107 107.995 27.5276L107.139 32.1082L104.289 32.1276L106.114 22.2565L108.965 22.237L108.72 23.7639ZM114.685 29.5699L118.739 29.5504L118.26 32.0401L111.034 32.079L111.495 29.6769L116.284 24.6878L112.445 24.7073L112.916 22.2176L120 22.1787L119.548 24.5808L114.685 29.5699Z" fill="white"/>
<circle cx="123.5" cy="30.5" r="1.5" fill="white"/>
</svg>
